<svg width="341" height="459" viewBox="0 0 341 459" fill="none" xmlns="http://www.w3.org/2000/svg">
<path d="M96.1777 46.4563L68.9998 41.5484L81.531 34.8553L83.3476 22L96.1777 46.4563Z" fill="#36CD77"/>
<g filter="url(#filter0_b_28_3)">
<g filter="url(#filter1_d_28_3)">
<rect x="26" y="189" width="305" height="233.059" rx="20" fill="white"/>
</g>
<path d="M117.432 289.233C117.432 290.801 117.138 292.143 116.551 293.26C115.969 294.373 115.173 295.225 114.165 295.817C113.161 296.409 112.022 296.705 110.749 296.705C109.475 296.705 108.334 296.409 107.325 295.817C106.321 295.221 105.526 294.366 104.939 293.253C104.357 292.136 104.065 290.796 104.065 289.233C104.065 287.666 104.357 286.326 104.939 285.213C105.526 284.096 106.321 283.241 107.325 282.65C108.334 282.058 109.475 281.762 110.749 281.762C112.022 281.762 113.161 282.058 114.165 282.65C115.173 283.241 115.969 284.096 116.551 285.213C117.138 286.326 117.432 287.666 117.432 289.233ZM114.783 289.233C114.783 288.13 114.61 287.2 114.264 286.442C113.923 285.68 113.45 285.105 112.844 284.716C112.238 284.323 111.539 284.127 110.749 284.127C109.958 284.127 109.259 284.323 108.653 284.716C108.047 285.105 107.571 285.68 107.226 286.442C106.885 287.2 106.714 288.13 106.714 289.233C106.714 290.337 106.885 291.269 107.226 292.032C107.571 292.789 108.047 293.365 108.653 293.758C109.259 294.146 109.958 294.34 110.749 294.34C111.539 294.34 112.238 294.146 112.844 293.758C113.45 293.365 113.923 292.789 114.264 292.032C114.61 291.269 114.783 290.337 114.783 289.233ZM122.38 290.114V296.506H119.809V285.597H122.267V287.451H122.395C122.645 286.84 123.046 286.355 123.595 285.995C124.149 285.635 124.833 285.455 125.647 285.455C126.4 285.455 127.056 285.616 127.615 285.938C128.178 286.26 128.614 286.726 128.922 287.337C129.234 287.948 129.388 288.689 129.383 289.56V296.506H126.812V289.958C126.812 289.229 126.623 288.658 126.244 288.246C125.87 287.834 125.351 287.628 124.689 287.628C124.239 287.628 123.839 287.728 123.488 287.927C123.143 288.121 122.87 288.402 122.672 288.772C122.477 289.141 122.38 289.588 122.38 290.114ZM132.11 296.506V281.961H134.681V287.401H134.788C134.921 287.136 135.108 286.854 135.349 286.556C135.591 286.253 135.917 285.995 136.329 285.782C136.741 285.564 137.267 285.455 137.906 285.455C138.749 285.455 139.509 285.67 140.186 286.101C140.868 286.527 141.407 287.16 141.805 287.998C142.208 288.831 142.409 289.854 142.409 291.066C142.409 292.264 142.212 293.282 141.819 294.12C141.426 294.958 140.891 295.597 140.214 296.037C139.537 296.478 138.77 296.698 137.913 296.698C137.288 296.698 136.77 296.594 136.358 296.385C135.946 296.177 135.614 295.926 135.363 295.633C135.117 295.334 134.925 295.053 134.788 294.787H134.639V296.506H132.11ZM134.632 291.052C134.632 291.757 134.731 292.375 134.93 292.905C135.134 293.436 135.425 293.85 135.804 294.148C136.187 294.442 136.651 294.588 137.196 294.588C137.764 294.588 138.24 294.437 138.623 294.134C139.007 293.826 139.296 293.407 139.49 292.877C139.689 292.342 139.788 291.733 139.788 291.052C139.788 290.374 139.691 289.773 139.497 289.248C139.303 288.722 139.014 288.31 138.63 288.012C138.247 287.713 137.769 287.564 137.196 287.564C136.646 287.564 136.18 287.709 135.797 287.998C135.413 288.286 135.122 288.691 134.923 289.212C134.729 289.733 134.632 290.346 134.632 291.052ZM149.353 296.719C148.288 296.719 147.364 296.485 146.583 296.016C145.802 295.547 145.196 294.892 144.765 294.049C144.339 293.206 144.126 292.221 144.126 291.094C144.126 289.967 144.339 288.98 144.765 288.133C145.196 287.285 145.802 286.627 146.583 286.158C147.364 285.689 148.288 285.455 149.353 285.455C150.418 285.455 151.342 285.689 152.123 286.158C152.904 286.627 153.508 287.285 153.934 288.133C154.365 288.98 154.58 289.967 154.58 291.094C154.58 292.221 154.365 293.206 153.934 294.049C153.508 294.892 152.904 295.547 152.123 296.016C151.342 296.485 150.418 296.719 149.353 296.719ZM149.367 294.66C149.945 294.66 150.428 294.501 150.816 294.184C151.204 293.862 151.493 293.431 151.683 292.891C151.877 292.351 151.974 291.75 151.974 291.087C151.974 290.419 151.877 289.816 151.683 289.276C151.493 288.731 151.204 288.298 150.816 287.976C150.428 287.654 149.945 287.493 149.367 287.493C148.775 287.493 148.283 287.654 147.89 287.976C147.502 288.298 147.21 288.731 147.016 289.276C146.827 289.816 146.732 290.419 146.732 291.087C146.732 291.75 146.827 292.351 147.016 292.891C147.21 293.431 147.502 293.862 147.89 294.184C148.283 294.501 148.775 294.66 149.367 294.66ZM159.902 296.726C159.21 296.726 158.588 296.603 158.034 296.357C157.484 296.106 157.049 295.737 156.727 295.249C156.41 294.761 156.251 294.16 156.251 293.445C156.251 292.829 156.365 292.32 156.592 291.918C156.819 291.516 157.129 291.194 157.522 290.952C157.915 290.711 158.358 290.528 158.85 290.405C159.348 290.277 159.861 290.185 160.392 290.128C161.031 290.062 161.549 290.003 161.947 289.951C162.345 289.894 162.634 289.809 162.814 289.695C162.998 289.577 163.091 289.394 163.091 289.148V289.106C163.091 288.57 162.932 288.156 162.615 287.863C162.297 287.569 161.841 287.422 161.244 287.422C160.614 287.422 160.115 287.56 159.745 287.834C159.381 288.109 159.135 288.433 159.007 288.807L156.606 288.466C156.796 287.803 157.108 287.249 157.544 286.804C157.979 286.355 158.512 286.018 159.142 285.796C159.771 285.569 160.467 285.455 161.23 285.455C161.755 285.455 162.279 285.517 162.799 285.64C163.32 285.763 163.796 285.966 164.227 286.25C164.658 286.53 165.003 286.911 165.264 287.394C165.529 287.877 165.662 288.481 165.662 289.205V296.506H163.19V295.008H163.105C162.949 295.311 162.728 295.595 162.444 295.86C162.165 296.12 161.812 296.331 161.386 296.492C160.965 296.648 160.47 296.726 159.902 296.726ZM160.569 294.837C161.085 294.837 161.533 294.735 161.912 294.532C162.29 294.323 162.582 294.049 162.785 293.708C162.993 293.367 163.098 292.995 163.098 292.593V291.307C163.017 291.374 162.88 291.435 162.686 291.492C162.496 291.549 162.283 291.598 162.047 291.641C161.81 291.684 161.575 291.722 161.343 291.755C161.111 291.788 160.91 291.816 160.74 291.84C160.356 291.892 160.013 291.977 159.71 292.096C159.407 292.214 159.168 292.38 158.993 292.593C158.817 292.801 158.73 293.071 158.73 293.402C158.73 293.876 158.903 294.233 159.248 294.475C159.594 294.716 160.034 294.837 160.569 294.837ZM168.247 296.506V285.597H170.74V287.415H170.853C171.052 286.785 171.393 286.3 171.876 285.959C172.364 285.614 172.92 285.441 173.545 285.441C173.687 285.441 173.846 285.448 174.021 285.462C174.201 285.472 174.35 285.488 174.468 285.512V287.877C174.359 287.839 174.187 287.806 173.95 287.777C173.718 287.744 173.493 287.728 173.275 287.728C172.806 287.728 172.385 287.829 172.011 288.033C171.642 288.232 171.35 288.509 171.137 288.864C170.924 289.219 170.818 289.629 170.818 290.093V296.506H168.247ZM179.776 296.698C178.919 296.698 178.152 296.478 177.474 296.037C176.797 295.597 176.262 294.958 175.869 294.12C175.476 293.282 175.28 292.264 175.28 291.066C175.28 289.854 175.479 288.831 175.876 287.998C176.279 287.16 176.821 286.527 177.503 286.101C178.185 285.67 178.945 285.455 179.783 285.455C180.422 285.455 180.947 285.564 181.359 285.782C181.771 285.995 182.098 286.253 182.339 286.556C182.581 286.854 182.768 287.136 182.901 287.401H183.007V281.961H185.585V296.506H183.057V294.787H182.901C182.768 295.053 182.576 295.334 182.325 295.633C182.074 295.926 181.743 296.177 181.331 296.385C180.919 296.594 180.401 296.698 179.776 296.698ZM180.493 294.588C181.037 294.588 181.501 294.442 181.885 294.148C182.268 293.85 182.56 293.436 182.759 292.905C182.957 292.375 183.057 291.757 183.057 291.052C183.057 290.346 182.957 289.733 182.759 289.212C182.564 288.691 182.276 288.286 181.892 287.998C181.513 287.709 181.047 287.564 180.493 287.564C179.92 287.564 179.442 287.713 179.058 288.012C178.675 288.31 178.386 288.722 178.192 289.248C177.998 289.773 177.901 290.374 177.901 291.052C177.901 291.733 177.998 292.342 178.192 292.877C178.391 293.407 178.682 293.826 179.065 294.134C179.454 294.437 179.929 294.588 180.493 294.588ZM205.85 286.868H203.194C203.118 286.433 202.978 286.047 202.775 285.711C202.571 285.37 202.318 285.081 202.015 284.844C201.712 284.607 201.366 284.43 200.978 284.312C200.594 284.188 200.18 284.127 199.735 284.127C198.944 284.127 198.243 284.326 197.632 284.723C197.022 285.116 196.543 285.694 196.198 286.456C195.852 287.214 195.679 288.14 195.679 289.233C195.679 290.346 195.852 291.284 196.198 292.046C196.548 292.803 197.026 293.376 197.632 293.765C198.243 294.148 198.942 294.34 199.728 294.34C200.163 294.34 200.57 294.283 200.949 294.169C201.333 294.051 201.676 293.878 201.979 293.651C202.287 293.424 202.545 293.144 202.753 292.813C202.966 292.481 203.113 292.103 203.194 291.677L205.85 291.691C205.75 292.382 205.535 293.031 205.203 293.637C204.877 294.243 204.448 294.778 203.918 295.242C203.388 295.701 202.767 296.061 202.057 296.321C201.347 296.577 200.559 296.705 199.692 296.705C198.414 296.705 197.273 296.409 196.269 295.817C195.265 295.225 194.474 294.371 193.897 293.253C193.319 292.136 193.03 290.796 193.03 289.233C193.03 287.666 193.321 286.326 193.904 285.213C194.486 284.096 195.279 283.241 196.283 282.65C197.287 282.058 198.423 281.762 199.692 281.762C200.502 281.762 201.255 281.875 201.951 282.103C202.647 282.33 203.267 282.664 203.811 283.104C204.356 283.54 204.803 284.075 205.154 284.709C205.509 285.339 205.741 286.059 205.85 286.868ZM210.72 281.961V296.506H208.149V281.961H210.72ZM213.364 296.506V285.597H215.935V296.506H213.364ZM214.657 284.049C214.249 284.049 213.899 283.914 213.605 283.644C213.312 283.369 213.165 283.04 213.165 282.657C213.165 282.268 213.312 281.939 213.605 281.669C213.899 281.395 214.249 281.258 214.657 281.258C215.069 281.258 215.419 281.395 215.708 281.669C216.001 281.939 216.148 282.268 216.148 282.657C216.148 283.04 216.001 283.369 215.708 283.644C215.419 283.914 215.069 284.049 214.657 284.049ZM223.408 296.719C222.315 296.719 221.37 296.492 220.575 296.037C219.784 295.578 219.175 294.929 218.749 294.091C218.323 293.249 218.11 292.257 218.11 291.115C218.11 289.993 218.323 289.008 218.749 288.161C219.18 287.309 219.781 286.646 220.553 286.172C221.325 285.694 222.232 285.455 223.273 285.455C223.946 285.455 224.58 285.564 225.177 285.782C225.778 285.995 226.308 286.326 226.768 286.776C227.232 287.226 227.596 287.799 227.862 288.495C228.127 289.186 228.259 290.01 228.259 290.966V291.755H219.317V290.022H225.795C225.79 289.529 225.683 289.091 225.475 288.708C225.267 288.32 224.976 288.014 224.602 287.792C224.232 287.569 223.801 287.458 223.309 287.458C222.783 287.458 222.322 287.586 221.924 287.841C221.526 288.092 221.216 288.424 220.994 288.836C220.776 289.243 220.665 289.69 220.66 290.178V291.691C220.66 292.325 220.776 292.87 221.008 293.324C221.24 293.774 221.564 294.12 221.981 294.361C222.397 294.598 222.885 294.716 223.444 294.716C223.818 294.716 224.156 294.664 224.46 294.56C224.763 294.451 225.025 294.293 225.248 294.084C225.47 293.876 225.638 293.618 225.752 293.31L228.153 293.58C228.001 294.214 227.712 294.768 227.286 295.242C226.865 295.711 226.325 296.075 225.667 296.336C225.009 296.591 224.256 296.719 223.408 296.719ZM233.005 290.114V296.506H230.434V285.597H232.892V287.451H233.02C233.27 286.84 233.671 286.355 234.22 285.995C234.774 285.635 235.458 285.455 236.272 285.455C237.025 285.455 237.681 285.616 238.24 285.938C238.803 286.26 239.239 286.726 239.547 287.337C239.859 287.948 240.013 288.689 240.008 289.56V296.506H237.437V289.958C237.437 289.229 237.248 288.658 236.869 288.246C236.495 287.834 235.976 287.628 235.314 287.628C234.864 287.628 234.464 287.728 234.113 287.927C233.768 288.121 233.495 288.402 233.297 288.772C233.102 289.141 233.005 289.588 233.005 290.114ZM248.069 285.597V287.586H241.798V285.597H248.069ZM243.346 282.983H245.917V293.225C245.917 293.57 245.969 293.836 246.074 294.02C246.182 294.2 246.324 294.323 246.5 294.39C246.675 294.456 246.869 294.489 247.082 294.489C247.243 294.489 247.39 294.477 247.522 294.454C247.66 294.43 247.764 294.409 247.835 294.39L248.268 296.4C248.131 296.447 247.934 296.499 247.679 296.556C247.428 296.613 247.12 296.646 246.755 296.655C246.111 296.674 245.531 296.577 245.015 296.364C244.499 296.146 244.09 295.81 243.787 295.356C243.488 294.901 243.342 294.333 243.346 293.651V282.983ZM258.685 288.481L256.342 288.736C256.275 288.499 256.159 288.277 255.994 288.069C255.833 287.86 255.615 287.692 255.34 287.564C255.066 287.437 254.729 287.373 254.332 287.373C253.797 287.373 253.347 287.489 252.982 287.721C252.622 287.953 252.445 288.253 252.45 288.623C252.445 288.94 252.561 289.198 252.798 289.397C253.039 289.596 253.437 289.759 253.991 289.887L255.852 290.285C256.884 290.507 257.651 290.86 258.153 291.343C258.659 291.826 258.915 292.458 258.92 293.239C258.915 293.926 258.714 294.532 258.316 295.057C257.923 295.578 257.376 295.985 256.675 296.279C255.975 296.572 255.17 296.719 254.261 296.719C252.925 296.719 251.851 296.44 251.036 295.881C250.222 295.318 249.737 294.534 249.58 293.53L252.087 293.289C252.201 293.781 252.442 294.153 252.812 294.404C253.181 294.655 253.662 294.78 254.254 294.78C254.864 294.78 255.354 294.655 255.724 294.404C256.098 294.153 256.285 293.843 256.285 293.473C256.285 293.161 256.164 292.903 255.923 292.699C255.686 292.496 255.317 292.339 254.815 292.231L252.954 291.84C251.907 291.622 251.133 291.255 250.631 290.739C250.129 290.218 249.881 289.56 249.886 288.765C249.881 288.092 250.063 287.51 250.433 287.017C250.807 286.52 251.325 286.137 251.988 285.867C252.656 285.592 253.425 285.455 254.296 285.455C255.575 285.455 256.581 285.727 257.315 286.272C258.053 286.816 258.51 287.553 258.685 288.481Z" fill="black"/>
<path d="M52.9015 329.85C52.8162 329.13 52.4706 328.572 51.8645 328.174C51.2585 327.776 50.5151 327.577 49.6344 327.577C48.9905 327.577 48.427 327.681 47.9441 327.89C47.4659 328.098 47.0918 328.385 46.8219 328.749C46.5568 329.114 46.4242 329.528 46.4242 329.992C46.4242 330.38 46.5165 330.714 46.7012 330.993C46.8906 331.268 47.132 331.498 47.4256 331.682C47.7192 331.862 48.0269 332.011 48.3489 332.13C48.6709 332.243 48.9668 332.336 49.2367 332.407L50.714 332.804C51.0927 332.904 51.5141 333.041 51.9782 333.216C52.4469 333.392 52.8944 333.631 53.3205 333.934C53.7514 334.232 54.1065 334.616 54.3858 335.084C54.6652 335.553 54.8049 336.128 54.8049 336.81C54.8049 337.596 54.5989 338.306 54.187 338.941C53.7798 339.575 53.1832 340.08 52.3972 340.454C51.6159 340.828 50.6666 341.015 49.5492 341.015C48.5075 341.015 47.6055 340.847 46.8432 340.51C46.0856 340.174 45.4891 339.706 45.0534 339.104C44.6226 338.503 44.3787 337.804 44.3219 337.009H46.1401C46.1874 337.558 46.3721 338.013 46.6941 338.373C47.0208 338.728 47.4327 338.993 47.9299 339.168C48.4318 339.339 48.9715 339.424 49.5492 339.424C50.2215 339.424 50.8252 339.315 51.3603 339.097C51.8953 338.875 52.3191 338.567 52.6316 338.174C52.9441 337.776 53.1003 337.312 53.1003 336.782C53.1003 336.299 52.9654 335.906 52.6955 335.603C52.4256 335.3 52.0705 335.054 51.6301 334.864C51.1898 334.675 50.714 334.509 50.2026 334.367L48.4128 333.856C47.2765 333.529 46.3768 333.063 45.714 332.456C45.0511 331.85 44.7196 331.057 44.7196 330.077C44.7196 329.263 44.9398 328.553 45.3801 327.947C45.8252 327.336 46.4218 326.862 47.1699 326.526C47.9228 326.185 48.7632 326.015 49.6912 326.015C50.6287 326.015 51.4621 326.183 52.1912 326.519C52.9204 326.85 53.498 327.305 53.9242 327.883C54.3551 328.46 54.5823 329.116 54.606 329.85H52.9015ZM59.1497 334.197V340.759H57.4735V326.214H59.1497V331.554H59.2917C59.5474 330.991 59.9309 330.544 60.4423 330.212C60.9584 329.876 61.6449 329.708 62.502 329.708C63.2453 329.708 63.8964 329.857 64.4551 330.155C65.0138 330.449 65.447 330.901 65.7548 331.512C66.0673 332.118 66.2235 332.89 66.2235 333.827V340.759H64.5474V333.941C64.5474 333.074 64.3225 332.404 63.8727 331.931C63.4276 331.453 62.8097 331.214 62.019 331.214C61.4698 331.214 60.9773 331.33 60.5417 331.562C60.1109 331.794 59.7699 332.132 59.519 332.577C59.2728 333.022 59.1497 333.562 59.1497 334.197ZM72.5002 341.015C71.8089 341.015 71.1815 340.885 70.6181 340.624C70.0546 340.359 69.6072 339.978 69.2757 339.481C68.9443 338.979 68.7786 338.373 68.7786 337.662C68.7786 337.037 68.9017 336.531 69.1479 336.143C69.3941 335.75 69.7232 335.442 70.1351 335.219C70.5471 334.997 71.0016 334.831 71.4988 334.722C72.0007 334.608 72.5049 334.519 73.0115 334.452C73.6744 334.367 74.2118 334.303 74.6238 334.26C75.0404 334.213 75.3435 334.135 75.5328 334.026C75.727 333.917 75.824 333.728 75.824 333.458V333.401C75.824 332.7 75.6323 332.156 75.2488 331.768C74.87 331.379 74.2947 331.185 73.5229 331.185C72.7227 331.185 72.0953 331.36 71.6408 331.711C71.1863 332.061 70.8667 332.435 70.682 332.833L69.0911 332.265C69.3752 331.602 69.754 331.086 70.2275 330.716C70.7057 330.342 71.2265 330.082 71.79 329.935C72.3581 329.784 72.9168 329.708 73.4661 329.708C73.8165 329.708 74.2189 329.751 74.6735 329.836C75.1328 329.916 75.5755 330.084 76.0016 330.34C76.4325 330.596 76.79 330.982 77.074 331.498C77.3581 332.014 77.5002 332.705 77.5002 333.572V340.759H75.824V339.282H75.7388C75.6252 339.519 75.4358 339.772 75.1706 340.042C74.9055 340.312 74.5527 340.541 74.1124 340.731C73.6721 340.92 73.1346 341.015 72.5002 341.015ZM72.7559 339.509C73.4187 339.509 73.9775 339.379 74.432 339.118C74.8913 338.858 75.2369 338.522 75.4689 338.11C75.7057 337.698 75.824 337.265 75.824 336.81V335.276C75.753 335.361 75.5968 335.439 75.3553 335.51C75.1185 335.577 74.8439 335.636 74.5314 335.688C74.2237 335.735 73.923 335.778 73.6294 335.816C73.3406 335.849 73.1062 335.877 72.9263 335.901C72.4907 335.958 72.0835 336.05 71.7047 336.178C71.3307 336.301 71.0276 336.488 70.7956 336.739C70.5684 336.985 70.4547 337.322 70.4547 337.748C70.4547 338.33 70.6702 338.77 71.101 339.069C71.5366 339.362 72.0882 339.509 72.7559 339.509ZM80.5595 340.759V329.85H82.1788V331.498H82.2924C82.4913 330.958 82.8511 330.52 83.372 330.184C83.8928 329.848 84.4799 329.679 85.1333 329.679C85.2565 329.679 85.4103 329.682 85.595 329.687C85.7797 329.691 85.9193 329.698 86.014 329.708V331.412C85.9572 331.398 85.827 331.377 85.6234 331.349C85.4245 331.315 85.2138 331.299 84.9913 331.299C84.461 331.299 83.9875 331.41 83.5708 331.633C83.1589 331.85 82.8322 332.153 82.5907 332.542C82.354 332.925 82.2356 333.363 82.2356 333.856V340.759H80.5595ZM92.2427 340.986C91.1916 340.986 90.2849 340.754 89.5225 340.29C88.765 339.822 88.1802 339.168 87.7683 338.33C87.3611 337.487 87.1575 336.507 87.1575 335.39C87.1575 334.272 87.3611 333.287 87.7683 332.435C88.1802 331.578 88.7531 330.911 89.487 330.432C90.2257 329.949 91.0874 329.708 92.0723 329.708C92.6404 329.708 93.2015 329.803 93.7555 329.992C94.3095 330.181 94.8137 330.489 95.2683 330.915C95.7228 331.337 96.0851 331.895 96.3549 332.591C96.6248 333.287 96.7598 334.144 96.7598 335.162V335.873H88.3507V334.424H95.0552C95.0552 333.808 94.9321 333.259 94.6859 332.776C94.4444 332.293 94.0988 331.912 93.649 331.633C93.2039 331.353 92.6783 331.214 92.0723 331.214C91.4047 331.214 90.827 331.379 90.3393 331.711C89.8564 332.037 89.4847 332.464 89.2243 332.989C88.9638 333.515 88.8336 334.078 88.8336 334.679V335.645C88.8336 336.469 88.9757 337.168 89.2598 337.741C89.5486 338.309 89.9487 338.742 90.46 339.04C90.9714 339.334 91.5656 339.481 92.2427 339.481C92.6831 339.481 93.0808 339.419 93.4359 339.296C93.7958 339.168 94.1059 338.979 94.3663 338.728C94.6267 338.472 94.8279 338.155 94.97 337.776L96.5893 338.231C96.4189 338.78 96.1324 339.263 95.7299 339.679C95.3275 340.091 94.8303 340.413 94.2385 340.645C93.6466 340.873 92.9814 340.986 92.2427 340.986ZM109.679 329.85V331.27H104.025V329.85H109.679ZM105.673 327.236H107.349V337.634C107.349 338.108 107.418 338.463 107.555 338.699C107.697 338.931 107.877 339.088 108.095 339.168C108.318 339.244 108.552 339.282 108.798 339.282C108.983 339.282 109.134 339.272 109.253 339.253C109.371 339.23 109.466 339.211 109.537 339.197L109.878 340.702C109.764 340.745 109.605 340.787 109.402 340.83C109.198 340.877 108.94 340.901 108.628 340.901C108.154 340.901 107.69 340.799 107.236 340.596C106.786 340.392 106.412 340.082 106.113 339.665C105.82 339.249 105.673 338.723 105.673 338.089V327.236ZM114.111 334.197V340.759H112.434V326.214H114.111V331.554H114.253C114.508 330.991 114.892 330.544 115.403 330.212C115.919 329.876 116.606 329.708 117.463 329.708C118.206 329.708 118.857 329.857 119.416 330.155C119.975 330.449 120.408 330.901 120.716 331.512C121.028 332.118 121.184 332.89 121.184 333.827V340.759H119.508V333.941C119.508 333.074 119.283 332.404 118.834 331.931C118.389 331.453 117.771 331.214 116.98 331.214C116.431 331.214 115.938 331.33 115.503 331.562C115.072 331.794 114.731 332.132 114.48 332.577C114.234 333.022 114.111 333.562 114.111 334.197ZM128.825 340.986C127.774 340.986 126.867 340.754 126.105 340.29C125.347 339.822 124.762 339.168 124.35 338.33C123.943 337.487 123.74 336.507 123.74 335.39C123.74 334.272 123.943 333.287 124.35 332.435C124.762 331.578 125.335 330.911 126.069 330.432C126.808 329.949 127.669 329.708 128.654 329.708C129.222 329.708 129.784 329.803 130.338 329.992C130.892 330.181 131.396 330.489 131.85 330.915C132.305 331.337 132.667 331.895 132.937 332.591C133.207 333.287 133.342 334.144 133.342 335.162V335.873H124.933V334.424H131.637C131.637 333.808 131.514 333.259 131.268 332.776C131.026 332.293 130.681 331.912 130.231 331.633C129.786 331.353 129.26 331.214 128.654 331.214C127.987 331.214 127.409 331.379 126.921 331.711C126.438 332.037 126.067 332.464 125.806 332.989C125.546 333.515 125.416 334.078 125.416 334.679V335.645C125.416 336.469 125.558 337.168 125.842 337.741C126.131 338.309 126.531 338.742 127.042 339.04C127.553 339.334 128.148 339.481 128.825 339.481C129.265 339.481 129.663 339.419 130.018 339.296C130.378 339.168 130.688 338.979 130.948 338.728C131.209 338.472 131.41 338.155 131.552 337.776L133.171 338.231C133.001 338.78 132.714 339.263 132.312 339.679C131.91 340.091 131.412 340.413 130.82 340.645C130.229 340.873 129.563 340.986 128.825 340.986ZM143.193 326.214V340.759H141.517V326.214H143.193ZM146.263 340.759V329.85H147.939V340.759H146.263ZM147.115 328.032C146.788 328.032 146.506 327.92 146.27 327.698C146.038 327.475 145.922 327.208 145.922 326.895C145.922 326.583 146.038 326.315 146.27 326.093C146.506 325.87 146.788 325.759 147.115 325.759C147.442 325.759 147.721 325.87 147.953 326.093C148.19 326.315 148.308 326.583 148.308 326.895C148.308 327.208 148.19 327.475 147.953 327.698C147.721 327.92 147.442 328.032 147.115 328.032ZM152.685 334.197V340.759H151.009V329.85H152.628V331.554H152.77C153.026 331.001 153.414 330.555 153.935 330.219C154.456 329.878 155.128 329.708 155.952 329.708C156.691 329.708 157.337 329.859 157.891 330.162C158.445 330.461 158.876 330.915 159.183 331.526C159.491 332.132 159.645 332.899 159.645 333.827V340.759H157.969V333.941C157.969 333.084 157.746 332.416 157.301 331.938C156.856 331.455 156.245 331.214 155.469 331.214C154.934 331.214 154.456 331.33 154.034 331.562C153.618 331.794 153.289 332.132 153.047 332.577C152.806 333.022 152.685 333.562 152.685 334.197ZM164.27 336.782L164.242 334.708H164.583L169.356 329.85H171.43L166.344 334.992H166.202L164.27 336.782ZM162.708 340.759V326.214H164.384V340.759H162.708ZM169.64 340.759L165.378 335.361L166.572 334.197L171.77 340.759H169.64ZM181.683 340.759L178.36 329.85H180.121L182.479 338.202H182.593L184.922 329.85H186.712L189.013 338.174H189.127L191.485 329.85H193.246L189.922 340.759H188.274L185.888 332.378H185.718L183.331 340.759H181.683ZM195.462 340.759V329.85H197.138V340.759H195.462ZM196.314 328.032C195.987 328.032 195.706 327.92 195.469 327.698C195.237 327.475 195.121 327.208 195.121 326.895C195.121 326.583 195.237 326.315 195.469 326.093C195.706 325.87 195.987 325.759 196.314 325.759C196.641 325.759 196.92 325.87 197.152 326.093C197.389 326.315 197.507 326.583 197.507 326.895C197.507 327.208 197.389 327.475 197.152 327.698C196.92 327.92 196.641 328.032 196.314 328.032ZM204.952 329.85V331.27H199.299V329.85H204.952ZM200.947 327.236H202.623V337.634C202.623 338.108 202.691 338.463 202.829 338.699C202.971 338.931 203.151 339.088 203.368 339.168C203.591 339.244 203.825 339.282 204.072 339.282C204.256 339.282 204.408 339.272 204.526 339.253C204.644 339.23 204.739 339.211 204.81 339.197L205.151 340.702C205.037 340.745 204.879 340.787 204.675 340.83C204.472 340.877 204.214 340.901 203.901 340.901C203.428 340.901 202.964 340.799 202.509 340.596C202.059 340.392 201.685 340.082 201.387 339.665C201.093 339.249 200.947 338.723 200.947 338.089V327.236ZM209.384 334.197V340.759H207.708V326.214H209.384V331.554H209.526C209.782 330.991 210.165 330.544 210.677 330.212C211.193 329.876 211.879 329.708 212.736 329.708C213.48 329.708 214.131 329.857 214.689 330.155C215.248 330.449 215.681 330.901 215.989 331.512C216.302 332.118 216.458 332.89 216.458 333.827V340.759H214.782V333.941C214.782 333.074 214.557 332.404 214.107 331.931C213.662 331.453 213.044 331.214 212.253 331.214C211.704 331.214 211.212 331.33 210.776 331.562C210.345 331.794 210.004 332.132 209.753 332.577C209.507 333.022 209.384 333.562 209.384 334.197ZM225.149 344.85V329.85H226.769V331.583H226.968C227.091 331.394 227.261 331.152 227.479 330.858C227.701 330.56 228.019 330.295 228.431 330.063C228.847 329.826 229.411 329.708 230.121 329.708C231.039 329.708 231.849 329.938 232.55 330.397C233.251 330.856 233.798 331.507 234.191 332.35C234.584 333.193 234.78 334.187 234.78 335.333C234.78 336.488 234.584 337.49 234.191 338.337C233.798 339.18 233.253 339.833 232.557 340.297C231.861 340.757 231.058 340.986 230.149 340.986C229.449 340.986 228.887 340.87 228.466 340.638C228.045 340.402 227.72 340.134 227.493 339.836C227.266 339.533 227.091 339.282 226.968 339.083H226.825V344.85H225.149ZM226.797 335.304C226.797 336.128 226.918 336.855 227.159 337.485C227.401 338.11 227.753 338.6 228.218 338.955C228.682 339.305 229.25 339.481 229.922 339.481C230.623 339.481 231.208 339.296 231.676 338.927C232.15 338.553 232.505 338.051 232.742 337.421C232.983 336.786 233.104 336.081 233.104 335.304C233.104 334.537 232.985 333.846 232.749 333.231C232.517 332.61 232.164 332.12 231.691 331.76C231.222 331.396 230.632 331.214 229.922 331.214C229.24 331.214 228.667 331.386 228.203 331.732C227.739 332.073 227.389 332.551 227.152 333.167C226.915 333.777 226.797 334.49 226.797 335.304ZM237.337 340.759V329.85H238.956V331.498H239.07C239.269 330.958 239.628 330.52 240.149 330.184C240.67 329.848 241.257 329.679 241.911 329.679C242.034 329.679 242.188 329.682 242.372 329.687C242.557 329.691 242.697 329.698 242.791 329.708V331.412C242.735 331.398 242.604 331.377 242.401 331.349C242.202 331.315 241.991 331.299 241.769 331.299C241.238 331.299 240.765 331.41 240.348 331.633C239.936 331.85 239.61 332.153 239.368 332.542C239.131 332.925 239.013 333.363 239.013 333.856V340.759H237.337ZM248.878 340.986C247.893 340.986 247.029 340.752 246.286 340.283C245.547 339.814 244.969 339.159 244.553 338.316C244.141 337.473 243.935 336.488 243.935 335.361C243.935 334.225 244.141 333.233 244.553 332.385C244.969 331.538 245.547 330.88 246.286 330.411C247.029 329.942 247.893 329.708 248.878 329.708C249.863 329.708 250.725 329.942 251.463 330.411C252.207 330.88 252.784 331.538 253.196 332.385C253.613 333.233 253.821 334.225 253.821 335.361C253.821 336.488 253.613 337.473 253.196 338.316C252.784 339.159 252.207 339.814 251.463 340.283C250.725 340.752 249.863 340.986 248.878 340.986ZM248.878 339.481C249.626 339.481 250.242 339.289 250.725 338.905C251.208 338.522 251.565 338.018 251.797 337.393C252.029 336.768 252.145 336.09 252.145 335.361C252.145 334.632 252.029 333.953 251.797 333.323C251.565 332.693 251.208 332.184 250.725 331.796C250.242 331.408 249.626 331.214 248.878 331.214C248.13 331.214 247.514 331.408 247.031 331.796C246.548 332.184 246.191 332.693 245.959 333.323C245.727 333.953 245.611 334.632 245.611 335.361C245.611 336.09 245.727 336.768 245.959 337.393C246.191 338.018 246.548 338.522 247.031 338.905C247.514 339.289 248.13 339.481 248.878 339.481ZM264.107 332.293L262.601 332.719C262.507 332.468 262.367 332.224 262.182 331.988C262.002 331.746 261.756 331.547 261.444 331.391C261.131 331.235 260.731 331.157 260.243 331.157C259.576 331.157 259.019 331.311 258.574 331.618C258.134 331.921 257.914 332.307 257.914 332.776C257.914 333.193 258.065 333.522 258.368 333.763C258.671 334.005 259.145 334.206 259.789 334.367L261.408 334.765C262.384 335.001 263.11 335.364 263.589 335.851C264.067 336.334 264.306 336.957 264.306 337.719C264.306 338.344 264.126 338.903 263.766 339.395C263.411 339.888 262.914 340.276 262.275 340.56C261.635 340.844 260.892 340.986 260.045 340.986C258.932 340.986 258.011 340.745 257.282 340.262C256.553 339.779 256.091 339.073 255.897 338.145L257.488 337.748C257.639 338.335 257.926 338.775 258.347 339.069C258.773 339.362 259.33 339.509 260.016 339.509C260.797 339.509 261.418 339.343 261.877 339.012C262.341 338.676 262.573 338.273 262.573 337.804C262.573 337.426 262.44 337.108 262.175 336.853C261.91 336.592 261.503 336.398 260.954 336.27L259.135 335.844C258.136 335.608 257.403 335.241 256.934 334.743C256.47 334.242 256.238 333.614 256.238 332.861C256.238 332.246 256.411 331.701 256.756 331.228C257.107 330.754 257.582 330.383 258.184 330.113C258.79 329.843 259.476 329.708 260.243 329.708C261.323 329.708 262.171 329.945 262.786 330.418C263.406 330.892 263.847 331.517 264.107 332.293ZM266.829 344.85V329.85H268.448V331.583H268.647C268.77 331.394 268.941 331.152 269.159 330.858C269.381 330.56 269.698 330.295 270.11 330.063C270.527 329.826 271.09 329.708 271.801 329.708C272.719 329.708 273.529 329.938 274.23 330.397C274.93 330.856 275.477 331.507 275.87 332.35C276.263 333.193 276.46 334.187 276.46 335.333C276.46 336.488 276.263 337.49 275.87 338.337C275.477 339.18 274.933 339.833 274.237 340.297C273.541 340.757 272.738 340.986 271.829 340.986C271.128 340.986 270.567 340.87 270.146 340.638C269.724 340.402 269.4 340.134 269.173 339.836C268.945 339.533 268.77 339.282 268.647 339.083H268.505V344.85H266.829ZM268.477 335.304C268.477 336.128 268.597 336.855 268.839 337.485C269.08 338.11 269.433 338.6 269.897 338.955C270.361 339.305 270.929 339.481 271.602 339.481C272.302 339.481 272.887 339.296 273.356 338.927C273.829 338.553 274.185 338.051 274.421 337.421C274.663 336.786 274.784 336.081 274.784 335.304C274.784 334.537 274.665 333.846 274.428 333.231C274.196 332.61 273.844 332.12 273.37 331.76C272.901 331.396 272.312 331.214 271.602 331.214C270.92 331.214 270.347 331.386 269.883 331.732C269.419 332.073 269.069 332.551 268.832 333.167C268.595 333.777 268.477 334.49 268.477 335.304ZM283.59 340.986C282.539 340.986 281.633 340.754 280.87 340.29C280.113 339.822 279.528 339.168 279.116 338.33C278.709 337.487 278.505 336.507 278.505 335.39C278.505 334.272 278.709 333.287 279.116 332.435C279.528 331.578 280.101 330.911 280.835 330.432C281.573 329.949 282.435 329.708 283.42 329.708C283.988 329.708 284.549 329.803 285.103 329.992C285.657 330.181 286.161 330.489 286.616 330.915C287.07 331.337 287.433 331.895 287.703 332.591C287.972 333.287 288.107 334.144 288.107 335.162V335.873H279.698V334.424H286.403C286.403 333.808 286.28 333.259 286.034 332.776C285.792 332.293 285.446 331.912 284.997 331.633C284.552 331.353 284.026 331.214 283.42 331.214C282.752 331.214 282.175 331.379 281.687 331.711C281.204 332.037 280.832 332.464 280.572 332.989C280.311 333.515 280.181 334.078 280.181 334.679V335.645C280.181 336.469 280.323 337.168 280.607 337.741C280.896 338.309 281.296 338.742 281.808 339.04C282.319 339.334 282.913 339.481 283.59 339.481C284.031 339.481 284.428 339.419 284.784 339.296C285.143 339.168 285.454 338.979 285.714 338.728C285.974 338.472 286.176 338.155 286.318 337.776L287.937 338.231C287.767 338.78 287.48 339.263 287.078 339.679C286.675 340.091 286.178 340.413 285.586 340.645C284.994 340.873 284.329 340.986 283.59 340.986ZM295.089 340.986C294.066 340.986 293.186 340.745 292.447 340.262C291.708 339.779 291.14 339.114 290.742 338.266C290.345 337.419 290.146 336.45 290.146 335.361C290.146 334.253 290.349 333.276 290.757 332.428C291.169 331.576 291.741 330.911 292.475 330.432C293.214 329.949 294.076 329.708 295.061 329.708C295.828 329.708 296.519 329.85 297.134 330.134C297.75 330.418 298.254 330.816 298.647 331.327C299.04 331.839 299.284 332.435 299.379 333.117H297.703C297.575 332.62 297.291 332.179 296.85 331.796C296.415 331.408 295.828 331.214 295.089 331.214C294.436 331.214 293.863 331.384 293.37 331.725C292.883 332.061 292.501 332.537 292.227 333.152C291.957 333.763 291.822 334.481 291.822 335.304C291.822 336.147 291.954 336.881 292.22 337.506C292.49 338.131 292.868 338.617 293.356 338.962C293.848 339.308 294.426 339.481 295.089 339.481C295.525 339.481 295.92 339.405 296.275 339.253C296.63 339.102 296.931 338.884 297.177 338.6C297.423 338.316 297.598 337.975 297.703 337.577H299.379C299.284 338.221 299.05 338.801 298.676 339.317C298.306 339.829 297.816 340.236 297.205 340.539C296.599 340.837 295.894 340.986 295.089 340.986ZM306.573 329.85V331.27H300.92V329.85H306.573ZM302.568 327.236H304.244V337.634C304.244 338.108 304.312 338.463 304.45 338.699C304.592 338.931 304.772 339.088 304.99 339.168C305.212 339.244 305.446 339.282 305.693 339.282C305.877 339.282 306.029 339.272 306.147 339.253C306.266 339.23 306.36 339.211 306.431 339.197L306.772 340.702C306.659 340.745 306.5 340.787 306.296 340.83C306.093 340.877 305.835 340.901 305.522 340.901C305.049 340.901 304.585 340.799 304.13 340.596C303.68 340.392 303.306 340.082 303.008 339.665C302.714 339.249 302.568 338.723 302.568 338.089V327.236ZM316.627 332.293L315.121 332.719C315.026 332.468 314.887 332.224 314.702 331.988C314.522 331.746 314.276 331.547 313.963 331.391C313.651 331.235 313.251 331.157 312.763 331.157C312.095 331.157 311.539 331.311 311.094 331.618C310.654 331.921 310.433 332.307 310.433 332.776C310.433 333.193 310.585 333.522 310.888 333.763C311.191 334.005 311.664 334.206 312.308 334.367L313.928 334.765C314.903 335.001 315.63 335.364 316.108 335.851C316.586 336.334 316.825 336.957 316.825 337.719C316.825 338.344 316.646 338.903 316.286 339.395C315.931 339.888 315.433 340.276 314.794 340.56C314.155 340.844 313.412 340.986 312.564 340.986C311.451 340.986 310.53 340.745 309.801 340.262C309.072 339.779 308.61 339.073 308.416 338.145L310.007 337.748C310.159 338.335 310.445 338.775 310.867 339.069C311.293 339.362 311.849 339.509 312.536 339.509C313.317 339.509 313.937 339.343 314.396 339.012C314.86 338.676 315.093 338.273 315.093 337.804C315.093 337.426 314.96 337.108 314.695 336.853C314.43 336.592 314.022 336.398 313.473 336.27L311.655 335.844C310.656 335.608 309.922 335.241 309.453 334.743C308.989 334.242 308.757 333.614 308.757 332.861C308.757 332.246 308.93 331.701 309.276 331.228C309.626 330.754 310.102 330.383 310.703 330.113C311.309 329.843 311.996 329.708 312.763 329.708C313.843 329.708 314.69 329.945 315.306 330.418C315.926 330.892 316.366 331.517 316.627 332.293ZM91.2013 365.015C90.5101 365.015 89.8827 364.885 89.3192 364.624C88.7558 364.359 88.3084 363.978 87.9769 363.481C87.6455 362.979 87.4798 362.373 87.4798 361.662C87.4798 361.037 87.6029 360.531 87.8491 360.143C88.0953 359.75 88.4244 359.442 88.8363 359.219C89.2482 358.997 89.7028 358.831 90.1999 358.722C90.7018 358.608 91.2061 358.519 91.7127 358.452C92.3756 358.367 92.913 358.303 93.3249 358.26C93.7416 358.213 94.0446 358.135 94.234 358.026C94.4281 357.917 94.5252 357.728 94.5252 357.458V357.401C94.5252 356.7 94.3335 356.156 93.9499 355.768C93.5711 355.379 92.9959 355.185 92.2241 355.185C91.4239 355.185 90.7965 355.36 90.342 355.711C89.8874 356.061 89.5678 356.435 89.3832 356.833L87.7923 356.265C88.0763 355.602 88.4551 355.086 88.9286 354.716C89.4068 354.342 89.9277 354.082 90.4911 353.935C91.0593 353.784 91.618 353.708 92.1673 353.708C92.5176 353.708 92.9201 353.751 93.3746 353.836C93.8339 353.916 94.2766 354.084 94.7028 354.34C95.1336 354.596 95.4911 354.982 95.7752 355.498C96.0593 356.014 96.2013 356.705 96.2013 357.572V364.759H94.5252V363.282H94.44C94.3263 363.519 94.137 363.772 93.8718 364.042C93.6067 364.312 93.2539 364.541 92.8136 364.731C92.3732 364.92 91.8358 365.015 91.2013 365.015ZM91.457 363.509C92.1199 363.509 92.6786 363.379 93.1332 363.118C93.5924 362.858 93.9381 362.522 94.1701 362.11C94.4068 361.698 94.5252 361.265 94.5252 360.81V359.276C94.4542 359.361 94.2979 359.439 94.0565 359.51C93.8197 359.577 93.5451 359.636 93.2326 359.688C92.9248 359.735 92.6242 359.778 92.3306 359.816C92.0418 359.849 91.8074 359.877 91.6275 359.901C91.1919 359.958 90.7847 360.05 90.4059 360.178C90.0318 360.301 89.7288 360.488 89.4968 360.739C89.2695 360.985 89.1559 361.322 89.1559 361.748C89.1559 362.33 89.3713 362.77 89.8022 363.069C90.2378 363.362 90.7894 363.509 91.457 363.509ZM100.937 358.197V364.759H99.2607V353.85H100.88V355.554H101.022C101.278 355.001 101.666 354.555 102.187 354.219C102.708 353.878 103.38 353.708 104.204 353.708C104.942 353.708 105.589 353.859 106.143 354.162C106.697 354.461 107.128 354.915 107.435 355.526C107.743 356.132 107.897 356.899 107.897 357.827V364.759H106.221V357.941C106.221 357.084 105.998 356.416 105.553 355.938C105.108 355.455 104.497 355.214 103.721 355.214C103.186 355.214 102.708 355.33 102.286 355.562C101.87 355.794 101.54 356.132 101.299 356.577C101.058 357.022 100.937 357.562 100.937 358.197ZM115.079 364.986C114.17 364.986 113.368 364.757 112.672 364.297C111.975 363.833 111.431 363.18 111.038 362.337C110.645 361.49 110.449 360.488 110.449 359.333C110.449 358.187 110.645 357.193 111.038 356.35C111.431 355.507 111.978 354.856 112.679 354.397C113.379 353.938 114.189 353.708 115.108 353.708C115.818 353.708 116.379 353.826 116.791 354.063C117.208 354.295 117.525 354.56 117.743 354.858C117.965 355.152 118.138 355.394 118.261 355.583H118.403V350.214H120.079V364.759H118.46V363.083H118.261C118.138 363.282 117.963 363.533 117.735 363.836C117.508 364.134 117.184 364.402 116.762 364.638C116.341 364.87 115.78 364.986 115.079 364.986ZM115.306 363.481C115.979 363.481 116.547 363.305 117.011 362.955C117.475 362.6 117.828 362.11 118.069 361.485C118.311 360.855 118.431 360.128 118.431 359.304C118.431 358.49 118.313 357.777 118.076 357.167C117.84 356.551 117.489 356.073 117.025 355.732C116.561 355.386 115.988 355.214 115.306 355.214C114.596 355.214 114.004 355.396 113.531 355.76C113.062 356.12 112.709 356.61 112.473 357.231C112.241 357.846 112.125 358.537 112.125 359.304C112.125 360.081 112.243 360.786 112.48 361.421C112.721 362.051 113.076 362.553 113.545 362.927C114.019 363.296 114.606 363.481 115.306 363.481ZM133.126 364.986C132.217 364.986 131.414 364.757 130.718 364.297C130.022 363.833 129.478 363.18 129.085 362.337C128.692 361.49 128.495 360.488 128.495 359.333C128.495 358.187 128.692 357.193 129.085 356.35C129.478 355.507 130.025 354.856 130.725 354.397C131.426 353.938 132.236 353.708 133.154 353.708C133.865 353.708 134.426 353.826 134.838 354.063C135.254 354.295 135.572 354.56 135.789 354.858C136.012 355.152 136.185 355.394 136.308 355.583H136.45V350.214H138.126V364.759H136.507V363.083H136.308C136.185 363.282 136.01 363.533 135.782 363.836C135.555 364.134 135.231 364.402 134.809 364.638C134.388 364.87 133.827 364.986 133.126 364.986ZM133.353 363.481C134.026 363.481 134.594 363.305 135.058 362.955C135.522 362.6 135.875 362.11 136.116 361.485C136.358 360.855 136.478 360.128 136.478 359.304C136.478 358.49 136.36 357.777 136.123 357.167C135.886 356.551 135.536 356.073 135.072 355.732C134.608 355.386 134.035 355.214 133.353 355.214C132.643 355.214 132.051 355.396 131.578 355.76C131.109 356.12 130.756 356.61 130.52 357.231C130.288 357.846 130.172 358.537 130.172 359.304C130.172 360.081 130.29 360.786 130.527 361.421C130.768 362.051 131.123 362.553 131.592 362.927C132.065 363.296 132.653 363.481 133.353 363.481ZM141.429 364.759V353.85H143.105V364.759H141.429ZM142.281 352.032C141.954 352.032 141.672 351.92 141.436 351.698C141.204 351.475 141.088 351.208 141.088 350.895C141.088 350.583 141.204 350.315 141.436 350.093C141.672 349.87 141.954 349.759 142.281 349.759C142.608 349.759 142.887 349.87 143.119 350.093C143.356 350.315 143.474 350.583 143.474 350.895C143.474 351.208 143.356 351.475 143.119 351.698C142.887 351.92 142.608 352.032 142.281 352.032ZM153.902 356.293L152.396 356.719C152.302 356.468 152.162 356.224 151.977 355.988C151.797 355.746 151.551 355.547 151.239 355.391C150.926 355.235 150.526 355.157 150.038 355.157C149.371 355.157 148.814 355.311 148.369 355.618C147.929 355.921 147.709 356.307 147.709 356.776C147.709 357.193 147.86 357.522 148.163 357.763C148.466 358.005 148.94 358.206 149.584 358.367L151.203 358.765C152.179 359.001 152.905 359.364 153.384 359.851C153.862 360.334 154.101 360.957 154.101 361.719C154.101 362.344 153.921 362.903 153.561 363.395C153.206 363.888 152.709 364.276 152.07 364.56C151.43 364.844 150.687 364.986 149.839 364.986C148.727 364.986 147.806 364.745 147.077 364.262C146.348 363.779 145.886 363.073 145.692 362.145L147.283 361.748C147.434 362.335 147.721 362.775 148.142 363.069C148.568 363.362 149.125 363.509 149.811 363.509C150.592 363.509 151.213 363.343 151.672 363.012C152.136 362.676 152.368 362.273 152.368 361.804C152.368 361.426 152.235 361.108 151.97 360.853C151.705 360.592 151.298 360.398 150.749 360.27L148.93 359.844C147.931 359.608 147.197 359.241 146.729 358.743C146.265 358.242 146.033 357.614 146.033 356.861C146.033 356.246 146.205 355.701 146.551 355.228C146.902 354.754 147.377 354.383 147.979 354.113C148.585 353.843 149.271 353.708 150.038 353.708C151.118 353.708 151.965 353.945 152.581 354.418C153.201 354.892 153.642 355.517 153.902 356.293ZM161.056 364.986C160.033 364.986 159.152 364.745 158.414 364.262C157.675 363.779 157.107 363.114 156.709 362.266C156.311 361.419 156.113 360.45 156.113 359.361C156.113 358.253 156.316 357.276 156.723 356.428C157.135 355.576 157.708 354.911 158.442 354.432C159.181 353.949 160.042 353.708 161.027 353.708C161.794 353.708 162.486 353.85 163.101 354.134C163.717 354.418 164.221 354.816 164.614 355.327C165.007 355.839 165.251 356.435 165.346 357.117H163.669C163.542 356.62 163.257 356.179 162.817 355.796C162.382 355.408 161.794 355.214 161.056 355.214C160.402 355.214 159.829 355.384 159.337 355.725C158.849 356.061 158.468 356.537 158.194 357.152C157.924 357.763 157.789 358.481 157.789 359.304C157.789 360.147 157.921 360.881 158.186 361.506C158.456 362.131 158.835 362.617 159.323 362.962C159.815 363.308 160.393 363.481 161.056 363.481C161.491 363.481 161.887 363.405 162.242 363.253C162.597 363.102 162.898 362.884 163.144 362.6C163.39 362.316 163.565 361.975 163.669 361.577H165.346C165.251 362.221 165.016 362.801 164.642 363.317C164.273 363.829 163.783 364.236 163.172 364.539C162.566 364.837 161.861 364.986 161.056 364.986ZM174.671 360.299V353.85H176.347V364.759H174.671V362.912H174.557C174.301 363.466 173.904 363.938 173.364 364.326C172.824 364.709 172.142 364.901 171.319 364.901C170.637 364.901 170.031 364.752 169.5 364.454C168.97 364.151 168.553 363.696 168.25 363.09C167.947 362.479 167.796 361.71 167.796 360.782V353.85H169.472V360.668C169.472 361.464 169.694 362.098 170.14 362.572C170.589 363.045 171.162 363.282 171.858 363.282C172.275 363.282 172.699 363.175 173.13 362.962C173.565 362.749 173.93 362.422 174.223 361.982C174.522 361.542 174.671 360.981 174.671 360.299ZM187.144 356.293L185.638 356.719C185.544 356.468 185.404 356.224 185.219 355.988C185.04 355.746 184.793 355.547 184.481 355.391C184.168 355.235 183.768 355.157 183.281 355.157C182.613 355.157 182.057 355.311 181.612 355.618C181.171 355.921 180.951 356.307 180.951 356.776C180.951 357.193 181.103 357.522 181.406 357.763C181.709 358.005 182.182 358.206 182.826 358.367L184.445 358.765C185.421 359.001 186.147 359.364 186.626 359.851C187.104 360.334 187.343 360.957 187.343 361.719C187.343 362.344 187.163 362.903 186.803 363.395C186.448 363.888 185.951 364.276 185.312 364.56C184.673 364.844 183.929 364.986 183.082 364.986C181.969 364.986 181.048 364.745 180.319 364.262C179.59 363.779 179.128 363.073 178.934 362.145L180.525 361.748C180.676 362.335 180.963 362.775 181.384 363.069C181.81 363.362 182.367 363.509 183.053 363.509C183.835 363.509 184.455 363.343 184.914 363.012C185.378 362.676 185.61 362.273 185.61 361.804C185.61 361.426 185.478 361.108 185.212 360.853C184.947 360.592 184.54 360.398 183.991 360.27L182.173 359.844C181.174 359.608 180.44 359.241 179.971 358.743C179.507 358.242 179.275 357.614 179.275 356.861C179.275 356.246 179.448 355.701 179.793 355.228C180.144 354.754 180.62 354.383 181.221 354.113C181.827 353.843 182.513 353.708 183.281 353.708C184.36 353.708 185.208 353.945 185.823 354.418C186.443 354.892 186.884 355.517 187.144 356.293ZM197.593 356.293L196.088 356.719C195.993 356.468 195.853 356.224 195.669 355.988C195.489 355.746 195.243 355.547 194.93 355.391C194.618 355.235 194.217 355.157 193.73 355.157C193.062 355.157 192.506 355.311 192.061 355.618C191.62 355.921 191.4 356.307 191.4 356.776C191.4 357.193 191.552 357.522 191.855 357.763C192.158 358.005 192.631 358.206 193.275 358.367L194.895 358.765C195.87 359.001 196.597 359.364 197.075 359.851C197.553 360.334 197.792 360.957 197.792 361.719C197.792 362.344 197.612 362.903 197.252 363.395C196.897 363.888 196.4 364.276 195.761 364.56C195.122 364.844 194.378 364.986 193.531 364.986C192.418 364.986 191.497 364.745 190.768 364.262C190.039 363.779 189.577 363.073 189.383 362.145L190.974 361.748C191.126 362.335 191.412 362.775 191.833 363.069C192.26 363.362 192.816 363.509 193.502 363.509C194.284 363.509 194.904 363.343 195.363 363.012C195.827 362.676 196.059 362.273 196.059 361.804C196.059 361.426 195.927 361.108 195.662 360.853C195.396 360.592 194.989 360.398 194.44 360.27L192.622 359.844C191.623 359.608 190.889 359.241 190.42 358.743C189.956 358.242 189.724 357.614 189.724 356.861C189.724 356.246 189.897 355.701 190.243 355.228C190.593 354.754 191.069 354.383 191.67 354.113C192.276 353.843 192.963 353.708 193.73 353.708C194.809 353.708 195.657 353.945 196.272 354.418C196.893 354.892 197.333 355.517 197.593 356.293ZM209.151 365.015C208.459 365.015 207.832 364.885 207.268 364.624C206.705 364.359 206.258 363.978 205.926 363.481C205.595 362.979 205.429 362.373 205.429 361.662C205.429 361.037 205.552 360.531 205.798 360.143C206.045 359.75 206.374 359.442 206.786 359.219C207.197 358.997 207.652 358.831 208.149 358.722C208.651 358.608 209.155 358.519 209.662 358.452C210.325 358.367 210.862 358.303 211.274 358.26C211.691 358.213 211.994 358.135 212.183 358.026C212.377 357.917 212.474 357.728 212.474 357.458V357.401C212.474 356.7 212.283 356.156 211.899 355.768C211.52 355.379 210.945 355.185 210.173 355.185C209.373 355.185 208.746 355.36 208.291 355.711C207.837 356.061 207.517 356.435 207.332 356.833L205.741 356.265C206.026 355.602 206.404 355.086 206.878 354.716C207.356 354.342 207.877 354.082 208.44 353.935C209.009 353.784 209.567 353.708 210.116 353.708C210.467 353.708 210.869 353.751 211.324 353.836C211.783 353.916 212.226 354.084 212.652 354.34C213.083 354.596 213.44 354.982 213.724 355.498C214.009 356.014 214.151 356.705 214.151 357.572V364.759H212.474V363.282H212.389C212.276 363.519 212.086 363.772 211.821 364.042C211.556 364.312 211.203 364.541 210.763 364.731C210.322 364.92 209.785 365.015 209.151 365.015ZM209.406 363.509C210.069 363.509 210.628 363.379 211.082 363.118C211.542 362.858 211.887 362.522 212.119 362.11C212.356 361.698 212.474 361.265 212.474 360.81V359.276C212.403 359.361 212.247 359.439 212.006 359.51C211.769 359.577 211.494 359.636 211.182 359.688C210.874 359.735 210.573 359.778 210.28 359.816C209.991 359.849 209.757 359.877 209.577 359.901C209.141 359.958 208.734 360.05 208.355 360.178C207.981 360.301 207.678 360.488 207.446 360.739C207.219 360.985 207.105 361.322 207.105 361.748C207.105 362.33 207.321 362.77 207.751 363.069C208.187 363.362 208.739 363.509 209.406 363.509ZM218.886 350.214V364.759H217.21V350.214H218.886ZM223.632 350.214V364.759H221.956V350.214H223.632ZM240.054 356.293L238.549 356.719C238.454 356.468 238.314 356.224 238.13 355.988C237.95 355.746 237.703 355.547 237.391 355.391C237.078 355.235 236.678 355.157 236.191 355.157C235.523 355.157 234.967 355.311 234.522 355.618C234.081 355.921 233.861 356.307 233.861 356.776C233.861 357.193 234.013 357.522 234.316 357.763C234.619 358.005 235.092 358.206 235.736 358.367L237.355 358.765C238.331 359.001 239.058 359.364 239.536 359.851C240.014 360.334 240.253 360.957 240.253 361.719C240.253 362.344 240.073 362.903 239.713 363.395C239.358 363.888 238.861 364.276 238.222 364.56C237.583 364.844 236.839 364.986 235.992 364.986C234.879 364.986 233.958 364.745 233.229 364.262C232.5 363.779 232.038 363.073 231.844 362.145L233.435 361.748C233.587 362.335 233.873 362.775 234.294 363.069C234.721 363.362 235.277 363.509 235.963 363.509C236.745 363.509 237.365 363.343 237.824 363.012C238.288 362.676 238.52 362.273 238.52 361.804C238.52 361.426 238.388 361.108 238.123 360.853C237.857 360.592 237.45 360.398 236.901 360.27L235.083 359.844C234.084 359.608 233.35 359.241 232.881 358.743C232.417 358.242 232.185 357.614 232.185 356.861C232.185 356.246 232.358 355.701 232.703 355.228C233.054 354.754 233.53 354.383 234.131 354.113C234.737 353.843 235.424 353.708 236.191 353.708C237.27 353.708 238.118 353.945 238.733 354.418C239.354 354.892 239.794 355.517 240.054 356.293ZM247.521 353.85V355.27H241.867V353.85H247.521ZM243.515 351.236H245.191V361.634C245.191 362.108 245.26 362.463 245.397 362.699C245.539 362.931 245.719 363.088 245.937 363.168C246.159 363.244 246.394 363.282 246.64 363.282C246.825 363.282 246.976 363.272 247.094 363.253C247.213 363.23 247.308 363.211 247.379 363.197L247.719 364.702C247.606 364.745 247.447 364.787 247.244 364.83C247.04 364.877 246.782 364.901 246.469 364.901C245.996 364.901 245.532 364.799 245.077 364.596C244.628 364.392 244.254 364.082 243.955 363.665C243.662 363.249 243.515 362.723 243.515 362.089V351.236ZM256.917 360.299V353.85H258.593V364.759H256.917V362.912H256.803C256.548 363.466 256.15 363.938 255.61 364.326C255.07 364.709 254.388 364.901 253.565 364.901C252.883 364.901 252.277 364.752 251.746 364.454C251.216 364.151 250.799 363.696 250.496 363.09C250.193 362.479 250.042 361.71 250.042 360.782V353.85H251.718V360.668C251.718 361.464 251.941 362.098 252.386 362.572C252.835 363.045 253.408 363.282 254.104 363.282C254.521 363.282 254.945 363.175 255.376 362.962C255.811 362.749 256.176 362.422 256.469 361.982C256.768 361.542 256.917 360.981 256.917 360.299ZM266.521 353.85V355.27H260.64V353.85H266.521ZM262.402 364.759V352.344C262.402 351.719 262.548 351.198 262.842 350.782C263.136 350.365 263.517 350.053 263.985 349.844C264.454 349.636 264.949 349.532 265.47 349.532C265.882 349.532 266.218 349.565 266.478 349.631C266.739 349.697 266.933 349.759 267.061 349.816L266.578 351.265C266.493 351.236 266.374 351.201 266.223 351.158C266.076 351.116 265.882 351.094 265.64 351.094C265.086 351.094 264.686 351.234 264.44 351.513C264.199 351.793 264.078 352.202 264.078 352.742V364.759H262.402ZM273.728 353.85V355.27H267.847V353.85H273.728ZM269.609 364.759V352.344C269.609 351.719 269.755 351.198 270.049 350.782C270.343 350.365 270.724 350.053 271.192 349.844C271.661 349.636 272.156 349.532 272.677 349.532C273.089 349.532 273.425 349.565 273.685 349.631C273.946 349.697 274.14 349.759 274.268 349.816L273.785 351.265C273.7 351.236 273.581 351.201 273.43 351.158C273.283 351.116 273.089 351.094 272.847 351.094C272.293 351.094 271.893 351.234 271.647 351.513C271.406 351.793 271.285 352.202 271.285 352.742V364.759H269.609Z" fill="black" fill-opacity="0.53"/>
<path d="M165.667 243.357H182.333M165.667 248.55H182.333M189 257.637L183.459 255.479C183.039 255.316 182.829 255.234 182.609 255.176C182.414 255.125 182.213 255.088 182.009 255.066C181.779 255.041 181.544 255.041 181.074 255.041H164.333C162.466 255.041 161.533 255.041 160.82 254.758C160.193 254.509 159.683 254.112 159.363 253.623C159 253.068 159 252.341 159 250.886V241.02C159 239.566 159 238.839 159.363 238.283C159.683 237.795 160.193 237.397 160.82 237.148C161.533 236.865 162.466 236.865 164.333 236.865H183.667C185.533 236.865 186.467 236.865 187.18 237.148C187.807 237.397 188.317 237.795 188.637 238.283C189 238.839 189 239.566 189 241.02V257.637Z" stroke="#FFAB2E" stroke-width="2" stroke-linecap="round" stroke-linejoin="round"/>
</g>
<rect x="75" y="393" width="207" height="66" rx="13" fill="#36CD77"/>
<path d="M129.885 426.362H127.229C127.153 425.927 127.013 425.541 126.81 425.205C126.606 424.864 126.353 424.575 126.05 424.338C125.747 424.101 125.401 423.924 125.013 423.805C124.629 423.682 124.215 423.621 123.77 423.621C122.979 423.621 122.278 423.82 121.668 424.217C121.057 424.61 120.579 425.188 120.233 425.95C119.887 426.708 119.714 427.634 119.714 428.727C119.714 429.84 119.887 430.777 120.233 431.54C120.583 432.297 121.062 432.87 121.668 433.259C122.278 433.642 122.977 433.834 123.763 433.834C124.198 433.834 124.606 433.777 124.984 433.663C125.368 433.545 125.711 433.372 126.014 433.145C126.322 432.918 126.58 432.638 126.788 432.307C127.001 431.975 127.148 431.597 127.229 431.17L129.885 431.185C129.786 431.876 129.57 432.525 129.239 433.131C128.912 433.737 128.483 434.272 127.953 434.736C127.423 435.195 126.803 435.555 126.092 435.815C125.382 436.071 124.594 436.199 123.727 436.199C122.449 436.199 121.308 435.903 120.304 435.311C119.3 434.719 118.509 433.865 117.932 432.747C117.354 431.63 117.065 430.29 117.065 428.727C117.065 427.16 117.357 425.82 117.939 424.707C118.521 423.59 119.314 422.735 120.318 422.143C121.322 421.552 122.458 421.256 123.727 421.256C124.537 421.256 125.29 421.369 125.986 421.597C126.682 421.824 127.302 422.158 127.847 422.598C128.391 423.034 128.839 423.569 129.189 424.203C129.544 424.833 129.776 425.553 129.885 426.362ZM136.943 436.213C135.877 436.213 134.954 435.979 134.173 435.51C133.392 435.041 132.786 434.385 132.355 433.543C131.929 432.7 131.716 431.715 131.716 430.588C131.716 429.461 131.929 428.474 132.355 427.626C132.786 426.779 133.392 426.121 134.173 425.652C134.954 425.183 135.877 424.949 136.943 424.949C138.008 424.949 138.931 425.183 139.713 425.652C140.494 426.121 141.098 426.779 141.524 427.626C141.955 428.474 142.17 429.461 142.17 430.588C142.17 431.715 141.955 432.7 141.524 433.543C141.098 434.385 140.494 435.041 139.713 435.51C138.931 435.979 138.008 436.213 136.943 436.213ZM136.957 434.153C137.535 434.153 138.018 433.995 138.406 433.678C138.794 433.356 139.083 432.925 139.272 432.385C139.467 431.845 139.564 431.244 139.564 430.581C139.564 429.913 139.467 429.31 139.272 428.77C139.083 428.225 138.794 427.792 138.406 427.47C138.018 427.148 137.535 426.987 136.957 426.987C136.365 426.987 135.873 427.148 135.48 427.47C135.092 427.792 134.8 428.225 134.606 428.77C134.417 429.31 134.322 429.913 134.322 430.581C134.322 431.244 134.417 431.845 134.606 432.385C134.8 432.925 135.092 433.356 135.48 433.678C135.873 433.995 136.365 434.153 136.957 434.153ZM144.352 440.091V425.091H146.881V426.895H147.03C147.162 426.63 147.349 426.348 147.591 426.05C147.832 425.747 148.159 425.489 148.571 425.276C148.983 425.058 149.509 424.949 150.148 424.949C150.991 424.949 151.75 425.164 152.428 425.595C153.109 426.021 153.649 426.653 154.047 427.491C154.449 428.325 154.651 429.348 154.651 430.56C154.651 431.758 154.454 432.776 154.061 433.614C153.668 434.452 153.133 435.091 152.456 435.531C151.779 435.972 151.012 436.192 150.155 436.192C149.53 436.192 149.011 436.088 148.599 435.879C148.188 435.671 147.856 435.42 147.605 435.126C147.359 434.828 147.167 434.546 147.03 434.281H146.923V440.091H144.352ZM146.874 430.545C146.874 431.251 146.973 431.869 147.172 432.399C147.375 432.929 147.667 433.344 148.045 433.642C148.429 433.936 148.893 434.082 149.438 434.082C150.006 434.082 150.482 433.931 150.865 433.628C151.249 433.32 151.537 432.901 151.732 432.371C151.93 431.836 152.03 431.227 152.03 430.545C152.03 429.868 151.933 429.267 151.739 428.741C151.545 428.216 151.256 427.804 150.872 427.506C150.489 427.207 150.01 427.058 149.438 427.058C148.888 427.058 148.422 427.203 148.038 427.491C147.655 427.78 147.364 428.185 147.165 428.706C146.971 429.227 146.874 429.84 146.874 430.545ZM158.079 440.091C157.729 440.091 157.404 440.063 157.106 440.006C156.813 439.954 156.578 439.892 156.403 439.821L157 437.818C157.374 437.927 157.708 437.979 158.001 437.974C158.295 437.97 158.553 437.877 158.775 437.697C159.002 437.522 159.194 437.229 159.35 436.817L159.571 436.227L155.615 425.091H158.342L160.856 433.33H160.97L163.491 425.091H166.225L161.858 437.321C161.654 437.899 161.384 438.393 161.048 438.805C160.712 439.222 160.3 439.539 159.812 439.757C159.329 439.98 158.752 440.091 158.079 440.091ZM173.079 436V421.455H175.714V433.791H182.12V436H173.079ZM184.294 436V425.091H186.865V436H184.294ZM185.586 423.543C185.179 423.543 184.829 423.408 184.535 423.138C184.242 422.863 184.095 422.534 184.095 422.151C184.095 421.762 184.242 421.433 184.535 421.163C184.829 420.889 185.179 420.751 185.586 420.751C185.998 420.751 186.349 420.889 186.637 421.163C186.931 421.433 187.078 421.762 187.078 422.151C187.078 422.534 186.931 422.863 186.637 423.138C186.349 423.408 185.998 423.543 185.586 423.543ZM192.08 429.608V436H189.509V425.091H191.966V426.945H192.094C192.345 426.334 192.745 425.848 193.294 425.489C193.848 425.129 194.532 424.949 195.347 424.949C196.099 424.949 196.755 425.11 197.314 425.432C197.877 425.754 198.313 426.22 198.621 426.831C198.933 427.442 199.087 428.183 199.082 429.054V436H196.511V429.452C196.511 428.723 196.322 428.152 195.943 427.74C195.569 427.328 195.051 427.122 194.388 427.122C193.938 427.122 193.538 427.222 193.188 427.42C192.842 427.615 192.57 427.896 192.371 428.266C192.177 428.635 192.08 429.082 192.08 429.608ZM204.04 432.577L204.033 429.473H204.445L208.365 425.091H211.369L206.547 430.46H206.014L204.04 432.577ZM201.696 436V421.455H204.267V436H201.696ZM208.543 436L204.991 431.036L206.724 429.224L211.618 436H208.543Z" fill="white"/>
<path d="M226.143 440.023C224.866 440.023 223.576 439.742 222.45 439.155L222.212 439.032C219.273 437.501 218.542 434.461 220.583 432.256L226.774 426.06C227.745 425.012 229.229 424.296 230.935 424.066C232.641 423.834 234.365 424.116 235.789 424.858L236.026 424.981C237.235 425.611 238.13 426.54 238.548 427.598C238.687 427.951 238.419 428.322 237.948 428.426C237.478 428.53 236.983 428.33 236.843 427.976C236.536 427.197 235.903 426.54 235.013 426.077L234.775 425.953C233.741 425.414 232.488 425.21 231.25 425.378C230.012 425.545 228.934 426.065 228.216 426.84L222.025 433.036C220.561 434.617 221.092 436.824 223.226 437.936L223.464 438.06C225.598 439.171 228.541 438.774 230.023 437.173L231.915 435.131C232.195 434.83 232.748 434.755 233.152 434.964C233.555 435.175 233.655 435.59 233.375 435.892L231.483 437.934C230.224 439.294 228.199 440.023 226.143 440.023Z" fill="#F8F9FC"/>
<path d="M235.91 434.014C234.631 434.014 233.339 433.733 232.211 433.146L231.972 433.021C230.764 432.391 229.869 431.463 229.452 430.406C229.313 430.052 229.582 429.682 230.053 429.577C230.525 429.473 231.018 429.674 231.157 430.028C231.464 430.806 232.097 431.463 232.987 431.926L233.226 432.051C235.359 433.162 238.302 432.764 239.785 431.163L245.976 424.967C247.44 423.385 246.909 421.178 244.774 420.066L244.539 419.945C243.502 419.404 242.251 419.201 241.012 419.368C239.773 419.535 238.695 420.055 237.977 420.83L236.086 422.872C235.806 423.175 235.252 423.249 234.849 423.039C234.446 422.829 234.346 422.414 234.626 422.112L236.517 420.07C237.506 419.002 238.99 418.286 240.697 418.056C242.402 417.825 244.127 418.107 245.551 418.849L245.786 418.97C248.728 420.503 249.459 423.543 247.417 425.747L241.226 431.944C239.979 433.289 237.962 434.014 235.91 434.014Z" fill="#F8F9FC"/>
<path d="M241.449 428.035C241.356 428.035 241.263 428.014 241.183 427.969C240.986 427.858 240.946 427.649 241.094 427.502L241.337 427.259C241.485 427.112 241.764 427.082 241.959 427.192C242.156 427.303 242.196 427.512 242.048 427.659L241.805 427.902C241.717 427.99 241.584 428.035 241.449 428.035Z" fill="#F8F9FC"/>
<path d="M242.466 427.019C242.373 427.019 242.279 426.997 242.199 426.952C242.003 426.842 241.963 426.633 242.111 426.486L244.078 424.518C244.549 424.008 244.731 423.38 244.582 422.758C244.432 422.135 243.968 421.594 243.276 421.234L243.123 421.155C242.922 421.05 242.871 420.842 243.011 420.691C243.15 420.539 243.427 420.501 243.63 420.606L243.783 420.686C244.67 421.148 245.264 421.842 245.456 422.639C245.648 423.436 245.415 424.242 244.799 424.908L242.822 426.886C242.734 426.973 242.601 427.019 242.466 427.019Z" fill="#F8F9FC"/>
<rect width="74" height="28" rx="7" fill="#36CD77"/>
<path d="M17.0043 19V8.81818H18.8487V13.1286H23.5668V8.81818H25.4162V19H23.5668V14.6747H18.8487V19H17.0043ZM30.7234 19.1491C29.9577 19.1491 29.2965 18.9901 28.7397 18.6719C28.1862 18.3504 27.7603 17.8963 27.462 17.3097C27.1637 16.7197 27.0146 16.0253 27.0146 15.2266C27.0146 14.4411 27.1637 13.7517 27.462 13.1584C27.7636 12.5618 28.1845 12.0978 28.7248 11.7663C29.265 11.4316 29.8997 11.2642 30.6289 11.2642C31.0996 11.2642 31.5437 11.3404 31.9613 11.4929C32.3822 11.642 32.7534 11.8741 33.0749 12.1889C33.3997 12.5038 33.6549 12.9048 33.8406 13.392C34.0262 13.8759 34.119 14.4527 34.119 15.1222V15.674H27.8597V14.4609H32.3938C32.3905 14.1162 32.3159 13.8097 32.1701 13.5412C32.0243 13.2694 31.8204 13.0556 31.5586 12.8999C31.3001 12.7441 30.9985 12.6662 30.6538 12.6662C30.2859 12.6662 29.9627 12.7557 29.6843 12.9347C29.4059 13.1103 29.1888 13.3423 29.033 13.6307C28.8806 13.9157 28.8027 14.2289 28.7994 14.5703V15.6293C28.7994 16.0734 28.8806 16.4545 29.043 16.7727C29.2054 17.0876 29.4324 17.3295 29.7241 17.4986C30.0157 17.6643 30.3571 17.7472 30.7482 17.7472C31.0101 17.7472 31.247 17.7107 31.4592 17.6378C31.6713 17.5616 31.8552 17.4505 32.011 17.3047C32.1668 17.1589 32.2844 16.9782 32.364 16.7628L34.0444 16.9517C33.9383 17.3958 33.7362 17.7836 33.4379 18.1151C33.1429 18.4432 32.765 18.6984 32.3043 18.8807C31.8436 19.0597 31.3166 19.1491 30.7234 19.1491ZM37.4412 14.5256V19H35.6415V11.3636H37.3617V12.6612H37.4512C37.6268 12.2337 37.9069 11.8939 38.2914 11.642C38.6792 11.3902 39.1581 11.2642 39.7282 11.2642C40.2551 11.2642 40.7142 11.3769 41.1053 11.6023C41.4997 11.8277 41.8046 12.1541 42.0201 12.5817C42.2388 13.0092 42.3465 13.5279 42.3432 14.1378V19H40.5435V14.4162C40.5435 13.9058 40.4109 13.5064 40.1458 13.218C39.8839 12.9297 39.521 12.7855 39.057 12.7855C38.7421 12.7855 38.4621 12.8551 38.2168 12.9943C37.9748 13.1302 37.7843 13.3274 37.6451 13.5859C37.5092 13.8445 37.4412 14.1577 37.4412 14.5256ZM44.1728 19V11.3636H45.9178V12.6364H45.9973C46.1365 12.1955 46.3752 11.8558 46.7132 11.6172C47.0546 11.3752 47.4441 11.2543 47.8816 11.2543C47.981 11.2543 48.092 11.2592 48.2147 11.2692C48.3406 11.2758 48.445 11.2874 48.5279 11.304V12.9595C48.4516 12.933 48.3307 12.9098 48.165 12.8899C48.0025 12.8667 47.8451 12.8551 47.6926 12.8551C47.3645 12.8551 47.0695 12.9264 46.8077 13.0689C46.5492 13.2081 46.3453 13.402 46.1962 13.6506C46.0471 13.8991 45.9725 14.1858 45.9725 14.5107V19H44.1728ZM51.0746 21.8636C50.8293 21.8636 50.6023 21.8438 50.3935 21.804C50.188 21.7675 50.0239 21.7244 49.9013 21.6747L50.3189 20.2727C50.5807 20.349 50.8144 20.3854 51.0199 20.3821C51.2254 20.3788 51.406 20.3142 51.5618 20.1882C51.7209 20.0656 51.8551 19.8601 51.9645 19.5717L52.1186 19.1591L49.3494 11.3636H51.2585L53.0185 17.1307H53.098L54.8629 11.3636H56.777L53.7195 19.9247C53.5769 20.3291 53.388 20.6754 53.1527 20.9638C52.9174 21.2554 52.629 21.4775 52.2876 21.63C51.9496 21.7857 51.5452 21.8636 51.0746 21.8636Z" fill="white"/>
<path d="M101.581 44.8966H100.081V47.8966H101.581V44.8966ZM116.464 43.2514L116.703 44.7323L116.464 43.2514ZM150.135 43.8692L149.564 45.2562L150.135 43.8692ZM161.227 49.935L159.923 50.6754L161.227 49.935ZM162.519 55.7199L163.876 56.3586L162.519 55.7199ZM158.026 59.9884L157.151 58.7699L158.026 59.9884ZM139.885 68.4412L140.56 69.7808L139.885 68.4412ZM118.935 81.7802L119.669 83.0887L118.935 81.7802ZM93.83 95.0912L93.081 93.7916L93.83 95.0912ZM70.5217 112.39L69.6347 111.18L70.5217 112.39ZM77.0368 121.629L76.8798 123.121L77.0368 121.629ZM99.7834 115.142L99.4614 113.677L99.7834 115.142ZM130.309 109.582L130.588 111.055L130.309 109.582ZM162.238 105.538L161.938 107.007L162.238 105.538ZM174.117 112.081L172.749 112.696L174.117 112.081ZM168.051 129.014L169.085 130.101L168.051 129.014ZM146.962 142.775L146.202 141.481L146.962 142.775ZM141.822 158.304L140.352 158.598L141.822 158.304ZM143.991 171.3C144.577 171.886 145.527 171.886 146.113 171.3L155.659 161.754C156.244 161.168 156.244 160.218 155.659 159.633C155.073 159.047 154.123 159.047 153.537 159.633L145.052 168.118L136.567 159.633C135.981 159.047 135.031 159.047 134.445 159.633C133.86 160.218 133.86 161.168 134.445 161.754L143.991 171.3ZM105.644 47.4944C106.459 47.3429 106.996 46.5598 106.845 45.7453C106.693 44.9309 105.91 44.3935 105.096 44.545L105.644 47.4944ZM112.352 42.6363C111.553 42.8529 111.08 43.6767 111.297 44.4763C111.513 45.2759 112.337 45.7485 113.137 45.5319L112.352 42.6363ZM119.028 44.4076C119.851 44.3097 120.438 43.5634 120.34 42.7408C120.242 41.9182 119.496 41.3307 118.674 41.4286L119.028 44.4076ZM123.573 41.0167C122.746 41.0608 122.111 41.7671 122.155 42.5944C122.199 43.4216 122.906 44.0565 123.733 44.0125L123.573 41.0167ZM128.49 43.8653C129.318 43.8546 129.981 43.1744 129.97 42.346C129.96 41.5177 129.28 40.8548 128.451 40.8655L128.49 43.8653ZM133.294 40.8492C132.465 40.8475 131.792 41.5178 131.791 42.3462C131.789 43.1746 132.459 43.8475 133.288 43.8492L133.294 40.8492ZM139.369 43.8165C140.198 43.8095 140.864 43.1322 140.857 42.3038C140.85 41.4754 140.172 40.8096 139.344 40.8166L139.369 43.8165ZM146.932 41.3491C146.12 41.1867 145.33 41.7137 145.167 42.5261C145.005 43.3384 145.532 44.1286 146.344 44.2909L146.932 41.3491ZM152.743 46.3593C153.533 46.6089 154.375 46.1709 154.625 45.3809C154.874 44.591 154.436 43.7483 153.646 43.4987L152.743 46.3593ZM159.994 46.3306C159.332 45.8326 158.392 45.9655 157.894 46.6275C157.396 47.2895 157.529 48.2299 158.191 48.728L159.994 46.3306ZM160.652 51.9805C161.035 52.7149 161.941 52.9996 162.676 52.6163C163.41 52.233 163.695 51.3269 163.311 50.5925L160.652 51.9805ZM164.36 54.2344C164.367 53.406 163.701 52.7291 162.872 52.7226C162.044 52.716 161.367 53.3823 161.36 54.2107L164.36 54.2344ZM160.522 56.0981C159.998 56.7403 160.095 57.6851 160.737 58.2085C161.379 58.7319 162.324 58.6356 162.847 57.9934L160.522 56.0981ZM160.172 60.3216C160.852 59.8482 161.019 58.9132 160.546 58.2335C160.072 57.5537 159.137 57.3864 158.457 57.8599L160.172 60.3216ZM155.164 60.057C154.449 60.4761 154.209 61.3952 154.629 62.1098C155.048 62.8244 155.967 63.0639 156.681 62.6448L155.164 60.057ZM152.04 64.9672C152.8 64.636 153.147 63.7519 152.815 62.9926C152.484 62.2332 151.6 61.8862 150.841 62.2174L152.04 64.9672ZM146.248 64.0844C145.477 64.3871 145.097 65.2576 145.399 66.0287C145.702 66.7999 146.573 67.1797 147.344 66.8771L146.248 64.0844ZM142.758 68.749C143.517 68.4152 143.861 67.5299 143.527 66.7717C143.193 66.0135 142.308 65.6695 141.55 66.0033L142.758 68.749ZM136.403 68.6206C135.686 69.0346 135.44 69.9519 135.854 70.6695C136.268 71.387 137.185 71.6331 137.903 71.2191L136.403 68.6206ZM132.739 74.4801C133.426 74.017 133.608 73.0847 133.144 72.3978C132.681 71.711 131.749 71.5297 131.062 71.9929L132.739 74.4801ZM125.934 75.5296C125.252 76.0003 125.081 76.9345 125.552 77.6162C126.022 78.2979 126.957 78.4689 127.638 77.9982L125.934 75.5296ZM122.4 81.4701C123.104 81.0324 123.319 80.1074 122.881 79.404C122.444 78.7007 121.519 78.4853 120.815 78.923L122.4 81.4701ZM115.111 82.1668C114.381 82.559 114.107 83.4685 114.499 84.1982C114.892 84.9279 115.801 85.2016 116.531 84.8094L115.111 82.1668ZM110.21 88.1145C110.947 87.7363 111.238 86.8322 110.859 86.0951C110.481 85.3581 109.577 85.0671 108.84 85.4453L110.21 88.1145ZM102.514 88.6885C101.778 89.0689 101.49 89.9739 101.87 90.7098C102.25 91.4457 103.155 91.7339 103.891 91.3535L102.514 88.6885ZM97.6486 94.6655C98.3748 94.2668 98.6402 93.3549 98.2415 92.6287C97.8427 91.9026 96.9308 91.6371 96.2047 92.0359L97.6486 94.6655ZM89.918 95.7327C89.2233 96.1841 89.0261 97.1131 89.4775 97.8078C89.9289 98.5024 90.858 98.6996 91.5526 98.2482L89.918 95.7327ZM85.7181 102.384C86.378 101.883 86.5068 100.942 86.0059 100.282C85.505 99.6225 84.564 99.4937 83.9042 99.9946L85.7181 102.384ZM78.165 104.512C77.5192 105.031 77.4163 105.975 77.9352 106.621C78.4541 107.267 79.3982 107.37 80.044 106.851L78.165 104.512ZM74.338 111.387C74.993 110.88 75.1127 109.938 74.6055 109.283C74.0982 108.628 73.1561 108.508 72.5011 109.015L74.338 111.387ZM67.4239 115.575C67.5224 116.398 68.269 116.985 69.0915 116.887C69.9141 116.788 70.5011 116.041 70.4027 115.219L67.4239 115.575ZM74.3709 119.12C73.6378 118.734 72.7308 119.016 72.3449 119.749C71.9591 120.482 72.2406 121.389 72.9737 121.775L74.3709 119.12ZM80.1372 123.153C80.963 123.086 81.5783 122.363 81.5115 121.537C81.4448 120.711 80.7213 120.096 79.8955 120.163L80.1372 123.153ZM85.3401 118.938C84.5561 119.206 84.1375 120.058 84.4051 120.842C84.6728 121.626 85.5253 122.045 86.3093 121.777L85.3401 118.938ZM91.9557 119.525C92.7174 119.2 93.0708 118.318 92.7451 117.557C92.4194 116.795 91.5379 116.441 90.7761 116.767L91.9557 119.525ZM96.4358 114.526C95.6503 114.79 95.2268 115.64 95.49 116.425C95.7532 117.211 96.6034 117.634 97.3889 117.371L96.4358 114.526ZM102.616 116.072C103.427 115.904 103.949 115.11 103.781 114.299C103.614 113.488 102.82 112.966 102.009 113.134L102.616 116.072ZM107.112 112.133C106.298 112.285 105.761 113.069 105.913 113.883C106.065 114.697 106.848 115.234 107.663 115.082L107.112 112.133ZM112.735 114.169C113.551 114.027 114.097 113.25 113.955 112.434C113.813 111.618 113.036 111.072 112.22 111.214L112.735 114.169ZM117.324 110.339C116.507 110.478 115.957 111.252 116.096 112.069C116.234 112.886 117.009 113.435 117.825 113.297L117.324 110.339ZM122.927 112.429C123.744 112.289 124.292 111.513 124.151 110.697C124.011 109.88 123.235 109.332 122.419 109.473L122.927 112.429ZM127.498 108.578C126.683 108.726 126.142 109.507 126.291 110.322C126.439 111.137 127.22 111.677 128.035 111.529L127.498 108.578ZM133.275 110.504C134.084 110.327 134.597 109.527 134.42 108.718C134.243 107.909 133.444 107.396 132.634 107.573L133.275 110.504ZM137.875 106.362C137.069 106.552 136.569 107.36 136.76 108.166C136.95 108.973 137.758 109.472 138.564 109.282L137.875 106.362ZM143.802 108.089C144.612 107.916 145.128 107.119 144.956 106.309C144.783 105.499 143.986 104.982 143.176 105.155L143.802 108.089ZM148.571 104.146C147.752 104.273 147.191 105.039 147.318 105.858C147.444 106.676 148.211 107.237 149.029 107.111L148.571 104.146ZM154.252 106.543C155.079 106.498 155.713 105.791 155.668 104.963C155.622 104.136 154.915 103.503 154.088 103.548L154.252 106.543ZM159.717 103.644C158.892 103.562 158.157 104.164 158.075 104.988C157.993 105.813 158.595 106.547 159.419 106.629L159.717 103.644ZM165.298 107.765C166.099 107.976 166.919 107.498 167.13 106.696C167.341 105.895 166.863 105.075 166.062 104.864L165.298 107.765ZM172.999 108.148C172.373 107.605 171.426 107.672 170.883 108.298C170.34 108.924 170.407 109.871 171.032 110.414L172.999 108.148ZM173.336 114.617C173.476 115.434 174.251 115.983 175.068 115.843C175.884 115.704 176.433 114.928 176.293 114.112L173.336 114.617ZM175.962 119.502C176.181 118.703 175.712 117.878 174.913 117.658C174.114 117.439 173.289 117.908 173.069 118.707L175.962 119.502ZM171.297 122.69C170.867 123.398 171.094 124.32 171.802 124.75C172.511 125.179 173.433 124.953 173.862 124.245L171.297 122.69ZM170.835 128.297C171.387 127.68 171.335 126.731 170.717 126.179C170.1 125.627 169.151 125.679 168.599 126.297L170.835 128.297ZM164.733 129.943C164.093 130.469 164.001 131.415 164.526 132.055C165.052 132.695 165.997 132.787 166.638 132.262L164.733 129.943ZM161.405 136.071C162.099 135.617 162.293 134.688 161.84 133.994C161.386 133.301 160.457 133.106 159.763 133.56L161.405 136.071ZM154.444 136.794C153.726 137.207 153.479 138.124 153.892 138.842C154.305 139.56 155.222 139.808 155.94 139.395L154.444 136.794ZM150.436 142.506C151.157 142.097 151.41 141.182 151.002 140.461C150.594 139.74 149.678 139.487 148.958 139.895L150.436 142.506ZM142.577 144.878C142.107 145.56 142.279 146.494 142.961 146.964C143.644 147.434 144.578 147.262 145.048 146.58L142.577 144.878ZM142.937 154.006C142.953 153.178 142.294 152.493 141.466 152.478C140.637 152.462 139.953 153.121 139.938 153.949L142.937 154.006ZM141.254 161.783C141.526 162.565 142.382 162.978 143.164 162.705C143.946 162.432 144.359 161.577 144.086 160.795L141.254 161.783ZM146.124 166.818C145.932 166.012 145.123 165.514 144.317 165.706C143.511 165.898 143.014 166.707 143.206 167.513L146.124 166.818ZM101.581 47.8966C102.981 47.8966 104.334 47.7381 105.644 47.4944L105.096 44.545C103.92 44.7638 102.755 44.8966 101.581 44.8966V47.8966ZM113.137 45.5319C114.339 45.2061 115.519 44.9232 116.703 44.7323L116.225 41.7706C114.896 41.985 113.604 42.2972 112.352 42.6363L113.137 45.5319ZM116.703 44.7323C117.477 44.6075 118.252 44.5001 119.028 44.4076L118.674 41.4286C117.859 41.5257 117.043 41.6388 116.225 41.7706L116.703 44.7323ZM123.733 44.0125C125.311 43.9284 126.896 43.8859 128.49 43.8653L128.451 40.8655C126.83 40.8865 125.203 40.9299 123.573 41.0167L123.733 44.0125ZM133.288 43.8492C134.089 43.8507 134.895 43.8528 135.701 43.8528V40.8528C134.898 40.8528 134.097 40.8507 133.294 40.8492L133.288 43.8492ZM135.701 43.8528C136.944 43.8528 138.199 43.8265 139.369 43.8165L139.344 40.8166C138.114 40.8271 136.935 40.8528 135.701 40.8528V43.8528ZM146.344 44.2909C147.426 44.5071 148.495 44.8163 149.564 45.2562L150.706 42.4822C149.44 41.9611 148.183 41.5991 146.932 41.3491L146.344 44.2909ZM149.564 45.2562C150.604 45.6847 151.706 46.0318 152.743 46.3593L153.646 43.4987C152.586 43.1636 151.608 42.8538 150.706 42.4822L149.564 45.2562ZM158.191 48.728C158.884 49.2497 159.47 49.8771 159.923 50.6754L162.532 49.1946C161.853 47.998 160.977 47.0696 159.994 46.3306L158.191 48.728ZM159.923 50.6754C160.182 51.1323 160.424 51.5444 160.652 51.9805L163.311 50.5925C163.051 50.0942 162.763 49.6021 162.532 49.1946L159.923 50.6754ZM161.36 54.2107C161.358 54.5009 161.301 54.7861 161.162 55.0812L163.876 56.3586C164.21 55.6497 164.355 54.9339 164.36 54.2344L161.36 54.2107ZM161.162 55.0812C160.98 55.4677 160.765 55.7991 160.522 56.0981L162.847 57.9934C163.237 57.5153 163.585 56.9778 163.876 56.3586L161.162 55.0812ZM158.457 57.8599C158.065 58.1333 157.599 58.4481 157.151 58.7699L158.901 61.2069C159.329 60.8995 159.729 60.6303 160.172 60.3216L158.457 57.8599ZM157.151 58.7699C156.514 59.2272 155.85 59.6541 155.164 60.057L156.681 62.6448C157.438 62.2007 158.18 61.7241 158.901 61.2069L157.151 58.7699ZM150.841 62.2174C149.345 62.8701 147.81 63.4712 146.248 64.0844L147.344 66.8771C148.896 66.2681 150.483 65.6463 152.04 64.9672L150.841 62.2174ZM141.55 66.0033C140.762 66.3501 139.98 66.7138 139.21 67.1015L140.56 69.7808C141.274 69.421 142.008 69.0795 142.758 68.749L141.55 66.0033ZM139.21 67.1015C138.255 67.5828 137.32 68.0916 136.403 68.6206L137.903 71.2191C138.777 70.7148 139.661 70.2335 140.56 69.7808L139.21 67.1015ZM131.062 71.9929C129.337 73.156 127.623 74.3632 125.934 75.5296L127.638 77.9982C129.359 76.8102 131.032 75.6316 132.739 74.4801L131.062 71.9929ZM120.815 78.923C119.953 79.4596 119.083 79.9777 118.202 80.4718L119.669 83.0887C120.596 82.5688 121.506 82.0269 122.4 81.4701L120.815 78.923ZM118.202 80.4718C117.177 81.0461 116.147 81.6101 115.111 82.1668L116.531 84.8094C117.58 84.2456 118.627 83.673 119.669 83.0887L118.202 80.4718ZM108.84 85.4453C106.741 86.5221 104.62 87.5999 102.514 88.6885L103.891 91.3535C105.994 90.2667 108.095 89.1996 110.21 88.1145L108.84 85.4453ZM96.2047 92.0359C95.1597 92.6097 94.1179 93.1939 93.081 93.7916L94.579 96.3908C95.5958 95.8048 96.6193 95.2307 97.6486 94.6655L96.2047 92.0359ZM93.081 93.7916C92.0049 94.4118 90.9518 95.0609 89.918 95.7327L91.5526 98.2482C92.5464 97.6025 93.5539 96.9816 94.579 96.3908L93.081 93.7916ZM83.9042 99.9946C81.9587 101.472 80.0523 102.996 78.165 104.512L80.044 106.851C81.9312 105.334 83.8089 103.833 85.7181 102.384L83.9042 99.9946ZM72.5011 109.015C71.5509 109.751 70.597 110.475 69.6347 111.18L71.4088 113.599C72.3966 112.875 73.372 112.135 74.338 111.387L72.5011 109.015ZM69.6347 111.18C68.0202 112.364 67.2217 113.886 67.4239 115.575L70.4027 115.219C70.3599 114.862 70.4358 114.313 71.4088 113.599L69.6347 111.18ZM72.9737 121.775C74.3039 122.475 75.7351 123 76.8798 123.121L77.1938 120.137C76.5811 120.073 75.5346 119.732 74.3709 119.12L72.9737 121.775ZM76.8798 123.121C77.9851 123.237 79.0709 123.239 80.1372 123.153L79.8955 120.163C78.9975 120.235 78.0985 120.232 77.1938 120.137L76.8798 123.121ZM86.3093 121.777C88.2346 121.12 90.1288 120.307 91.9557 119.525L90.7761 116.767C88.9277 117.558 87.1395 118.324 85.3401 118.938L86.3093 121.777ZM97.3889 117.371C98.3025 117.065 99.2062 116.805 100.105 116.607L99.4614 113.677C98.4359 113.902 97.4272 114.194 96.4358 114.526L97.3889 117.371ZM100.105 116.607C100.94 116.423 101.777 116.245 102.616 116.072L102.009 113.134C101.158 113.31 100.309 113.491 99.4614 113.677L100.105 116.607ZM107.663 115.082C109.348 114.767 111.04 114.465 112.735 114.169L112.22 111.214C110.516 111.511 108.813 111.815 107.112 112.133L107.663 115.082ZM117.825 113.297C119.525 113.009 121.227 112.721 122.927 112.429L122.419 109.473C120.724 109.764 119.026 110.051 117.324 110.339L117.825 113.297ZM128.035 111.529C128.887 111.374 129.738 111.217 130.588 111.055L130.029 108.108C129.187 108.267 128.344 108.424 127.498 108.578L128.035 111.529ZM130.588 111.055C131.469 110.888 132.366 110.702 133.275 110.504L132.634 107.573C131.745 107.767 130.876 107.947 130.029 108.108L130.588 111.055ZM138.564 109.282C140.292 108.874 142.041 108.465 143.802 108.089L143.176 105.155C141.38 105.538 139.604 105.954 137.875 106.362L138.564 109.282ZM149.029 107.111C150.792 106.838 152.539 106.638 154.252 106.543L154.088 103.548C152.254 103.649 150.408 103.862 148.571 104.146L149.029 107.111ZM159.419 106.629C160.275 106.715 161.116 106.839 161.938 107.007L162.539 104.068C161.608 103.878 160.666 103.739 159.717 103.644L159.419 106.629ZM161.938 107.007C163.055 107.236 164.186 107.472 165.298 107.765L166.062 104.864C164.86 104.547 163.654 104.296 162.539 104.068L161.938 107.007ZM171.032 110.414C171.756 111.042 172.34 111.787 172.749 112.696L175.485 111.465C174.88 110.121 174.017 109.032 172.999 108.148L171.032 110.414ZM172.749 112.696C173.035 113.332 173.226 113.973 173.336 114.617L176.293 114.112C176.141 113.222 175.877 112.336 175.485 111.465L172.749 112.696ZM173.069 118.707C172.7 120.052 172.081 121.396 171.297 122.69L173.862 124.245C174.756 122.77 175.503 121.171 175.962 119.502L173.069 118.707ZM168.599 126.297C168.079 126.879 167.546 127.425 167.017 127.928L169.085 130.101C169.67 129.545 170.259 128.941 170.835 128.297L168.599 126.297ZM167.017 127.928C166.281 128.628 165.518 129.299 164.733 129.943L166.638 132.262C167.474 131.574 168.292 130.856 169.085 130.101L167.017 127.928ZM159.763 133.56C158.039 134.688 156.257 135.751 154.444 136.794L155.94 139.395C157.778 138.337 159.614 137.242 161.405 136.071L159.763 133.56ZM148.958 139.895C148.037 140.417 147.116 140.944 146.202 141.481L147.721 144.068C148.617 143.542 149.523 143.023 150.436 142.506L148.958 139.895ZM146.202 141.481C144.698 142.365 143.502 143.536 142.577 144.878L145.048 146.58C145.745 145.568 146.627 144.711 147.721 144.068L146.202 141.481ZM139.938 153.949C139.907 155.542 140.056 157.122 140.352 158.598L143.293 158.01C143.04 156.742 142.911 155.379 142.937 154.006L139.938 153.949ZM140.352 158.598C140.574 159.712 140.902 160.773 141.254 161.783L144.086 160.795C143.757 159.851 143.478 158.934 143.293 158.01L140.352 158.598ZM143.206 167.513C143.423 168.423 143.552 169.322 143.552 170.239H146.552C146.552 169.037 146.382 167.9 146.124 166.818L143.206 167.513Z" fill="#36CD77"/>
<defs>
<filter id="filter0_b_28_3" x="22" y="185" width="313" height="241.059" filterUnits="userSpaceOnUse" color-interpolation-filters="sRGB">
<feFlood flood-opacity="0" result="BackgroundImageFix"/>
<feGaussianBlur in="BackgroundImageFix" stdDeviation="2"/>
<feComposite in2="SourceAlpha" operator="in" result="effect1_backgroundBlur_28_3"/>
<feBlend mode="normal" in="SourceGraphic" in2="effect1_backgroundBlur_28_3" result="shape"/>
</filter>
<filter id="filter1_d_28_3" x="20.3" y="181.3" width="320.4" height="248.459" filterUnits="userSpaceOnUse" color-interpolation-filters="sRGB">
<feFlood flood-opacity="0" result="BackgroundImageFix"/>
<feColorMatrix in="SourceAlpha" type="matrix" values="0 0 0 0 0 0 0 0 0 0 0 0 0 0 0 0 0 0 127 0" result="hardAlpha"/>
<feMorphology radius="4" operator="dilate" in="SourceAlpha" result="effect1_dropShadow_28_3"/>
<feOffset dx="2"/>
<feGaussianBlur stdDeviation="1.85"/>
<feComposite in2="hardAlpha" operator="out"/>
<feColorMatrix type="matrix" values="0 0 0 0 0 0 0 0 0 0 0 0 0 0 0 0 0 0 0.02 0"/>
<feBlend mode="normal" in2="BackgroundImageFix" result="effect1_dropShadow_28_3"/>
<feBlend mode="normal" in="SourceGraphic" in2="effect1_dropShadow_28_3" result="shape"/>
</filter>
</defs>
</svg>
