<svg width="906" height="244" viewBox="0 0 906 244" fill="none" xmlns="http://www.w3.org/2000/svg">
<g filter="url(#filter0_d_12_46)">
<path d="M68 78C68 72.4772 72.4772 68 78 68H808C813.523 68 818 72.4772 818 78V146C818 151.523 813.523 156 808 156H78C72.4771 156 68 151.523 68 146V78Z" fill="white"/>
</g>
<ellipse cx="761.961" cy="112" rx="32.9958" ry="31" fill="#EC4A1C"/>
<path d="M173.461 118V103.455H182.239V105.017H175.222V109.932H181.784V111.494H175.222V116.438H182.353V118H173.461ZM186.863 111.438V118H185.186V107.091H186.806V108.795H186.948C187.203 108.241 187.592 107.796 188.113 107.46C188.633 107.119 189.306 106.949 190.13 106.949C190.868 106.949 191.515 107.1 192.069 107.403C192.623 107.702 193.053 108.156 193.361 108.767C193.669 109.373 193.823 110.14 193.823 111.068V118H192.147V111.182C192.147 110.325 191.924 109.657 191.479 109.179C191.034 108.696 190.423 108.455 189.647 108.455C189.112 108.455 188.633 108.571 188.212 108.803C187.795 109.035 187.466 109.373 187.225 109.818C186.983 110.263 186.863 110.803 186.863 111.438ZM201.63 107.091V108.511H195.977V107.091H201.63ZM197.624 104.477H199.3V114.875C199.3 115.348 199.369 115.704 199.506 115.94C199.648 116.172 199.828 116.329 200.046 116.409C200.269 116.485 200.503 116.523 200.749 116.523C200.934 116.523 201.085 116.513 201.204 116.494C201.322 116.471 201.417 116.452 201.488 116.438L201.829 117.943C201.715 117.986 201.557 118.028 201.353 118.071C201.149 118.118 200.891 118.142 200.579 118.142C200.105 118.142 199.641 118.04 199.187 117.837C198.737 117.633 198.363 117.323 198.065 116.906C197.771 116.49 197.624 115.964 197.624 115.33V104.477ZM208.608 118.227C207.557 118.227 206.65 117.995 205.888 117.531C205.13 117.062 204.545 116.409 204.134 115.571C203.726 114.728 203.523 113.748 203.523 112.631C203.523 111.513 203.726 110.528 204.134 109.676C204.545 108.819 205.118 108.152 205.852 107.673C206.591 107.19 207.453 106.949 208.438 106.949C209.006 106.949 209.567 107.044 210.121 107.233C210.675 107.422 211.179 107.73 211.634 108.156C212.088 108.578 212.45 109.136 212.72 109.832C212.99 110.528 213.125 111.385 213.125 112.403V113.114H204.716V111.665H211.42C211.42 111.049 211.297 110.5 211.051 110.017C210.81 109.534 210.464 109.153 210.014 108.874C209.569 108.594 209.044 108.455 208.438 108.455C207.77 108.455 207.192 108.62 206.705 108.952C206.222 109.278 205.85 109.705 205.589 110.23C205.329 110.756 205.199 111.319 205.199 111.92V112.886C205.199 113.71 205.341 114.409 205.625 114.982C205.914 115.55 206.314 115.983 206.825 116.281C207.337 116.575 207.931 116.722 208.608 116.722C209.048 116.722 209.446 116.66 209.801 116.537C210.161 116.409 210.471 116.22 210.732 115.969C210.992 115.713 211.193 115.396 211.335 115.017L212.955 115.472C212.784 116.021 212.498 116.504 212.095 116.92C211.693 117.332 211.196 117.654 210.604 117.886C210.012 118.114 209.347 118.227 208.608 118.227ZM215.675 118V107.091H217.294V108.739H217.408C217.607 108.199 217.966 107.761 218.487 107.425C219.008 107.089 219.595 106.92 220.249 106.92C220.372 106.92 220.526 106.923 220.71 106.928C220.895 106.932 221.035 106.939 221.129 106.949V108.653C221.072 108.639 220.942 108.618 220.739 108.589C220.54 108.556 220.329 108.54 220.107 108.54C219.576 108.54 219.103 108.651 218.686 108.874C218.274 109.091 217.947 109.394 217.706 109.783C217.469 110.166 217.351 110.604 217.351 111.097V118H215.675ZM229.821 122.091C229.537 122.091 229.283 122.067 229.061 122.02C228.838 121.977 228.684 121.935 228.599 121.892L229.025 120.415C229.432 120.519 229.792 120.557 230.105 120.528C230.417 120.5 230.694 120.36 230.936 120.109C231.182 119.863 231.407 119.463 231.61 118.909L231.923 118.057L227.889 107.091H229.707L232.718 115.784H232.832L235.843 107.091H237.662L233.031 119.591C232.823 120.154 232.565 120.621 232.257 120.99C231.949 121.364 231.592 121.641 231.184 121.821C230.782 122.001 230.327 122.091 229.821 122.091ZM243.915 118.227C242.93 118.227 242.066 117.993 241.323 117.524C240.584 117.055 240.007 116.4 239.59 115.557C239.178 114.714 238.972 113.729 238.972 112.602C238.972 111.466 239.178 110.474 239.59 109.626C240.007 108.779 240.584 108.121 241.323 107.652C242.066 107.183 242.93 106.949 243.915 106.949C244.9 106.949 245.762 107.183 246.5 107.652C247.244 108.121 247.821 108.779 248.233 109.626C248.65 110.474 248.858 111.466 248.858 112.602C248.858 113.729 248.65 114.714 248.233 115.557C247.821 116.4 247.244 117.055 246.5 117.524C245.762 117.993 244.9 118.227 243.915 118.227ZM243.915 116.722C244.663 116.722 245.279 116.53 245.762 116.146C246.245 115.763 246.602 115.259 246.834 114.634C247.066 114.009 247.182 113.331 247.182 112.602C247.182 111.873 247.066 111.194 246.834 110.564C246.602 109.934 246.245 109.425 245.762 109.037C245.279 108.649 244.663 108.455 243.915 108.455C243.167 108.455 242.551 108.649 242.069 109.037C241.586 109.425 241.228 109.934 240.996 110.564C240.764 111.194 240.648 111.873 240.648 112.602C240.648 113.331 240.764 114.009 240.996 114.634C241.228 115.259 241.586 115.763 242.069 116.146C242.551 116.53 243.167 116.722 243.915 116.722ZM258.292 113.54V107.091H259.968V118H258.292V116.153H258.178C257.923 116.707 257.525 117.179 256.985 117.567C256.445 117.95 255.763 118.142 254.94 118.142C254.258 118.142 253.652 117.993 253.121 117.695C252.591 117.392 252.174 116.937 251.871 116.331C251.568 115.72 251.417 114.951 251.417 114.023V107.091H253.093V113.909C253.093 114.705 253.316 115.339 253.761 115.812C254.21 116.286 254.783 116.523 255.479 116.523C255.896 116.523 256.32 116.416 256.751 116.203C257.186 115.99 257.551 115.663 257.844 115.223C258.143 114.783 258.292 114.222 258.292 113.54ZM263.038 118V107.091H264.657V108.739H264.771C264.97 108.199 265.33 107.761 265.85 107.425C266.371 107.089 266.958 106.92 267.612 106.92C267.735 106.92 267.889 106.923 268.074 106.928C268.258 106.932 268.398 106.939 268.493 106.949V108.653C268.436 108.639 268.306 108.618 268.102 108.589C267.903 108.556 267.692 108.54 267.47 108.54C266.94 108.54 266.466 108.651 266.049 108.874C265.637 109.091 265.311 109.394 265.069 109.783C264.833 110.166 264.714 110.604 264.714 111.097V118H263.038ZM276.104 118V107.091H277.724V108.795H277.866C278.093 108.213 278.46 107.761 278.967 107.439C279.473 107.112 280.082 106.949 280.792 106.949C281.512 106.949 282.111 107.112 282.589 107.439C283.072 107.761 283.448 108.213 283.718 108.795H283.832C284.111 108.232 284.53 107.785 285.089 107.453C285.647 107.117 286.317 106.949 287.099 106.949C288.074 106.949 288.872 107.254 289.492 107.865C290.112 108.471 290.423 109.416 290.423 110.699V118H288.746V110.699C288.746 109.894 288.526 109.319 288.086 108.973C287.646 108.627 287.127 108.455 286.531 108.455C285.763 108.455 285.169 108.687 284.748 109.151C284.326 109.61 284.116 110.192 284.116 110.898V118H282.411V110.528C282.411 109.908 282.21 109.409 281.808 109.03C281.405 108.646 280.887 108.455 280.252 108.455C279.817 108.455 279.409 108.571 279.031 108.803C278.656 109.035 278.353 109.357 278.121 109.768C277.894 110.176 277.781 110.647 277.781 111.182V118H276.104ZM298.061 118.227C297.01 118.227 296.103 117.995 295.341 117.531C294.583 117.062 293.999 116.409 293.587 115.571C293.179 114.728 292.976 113.748 292.976 112.631C292.976 111.513 293.179 110.528 293.587 109.676C293.999 108.819 294.571 108.152 295.305 107.673C296.044 107.19 296.906 106.949 297.891 106.949C298.459 106.949 299.02 107.044 299.574 107.233C300.128 107.422 300.632 107.73 301.087 108.156C301.541 108.578 301.903 109.136 302.173 109.832C302.443 110.528 302.578 111.385 302.578 112.403V113.114H294.169V111.665H300.874C300.874 111.049 300.75 110.5 300.504 110.017C300.263 109.534 299.917 109.153 299.467 108.874C299.022 108.594 298.497 108.455 297.891 108.455C297.223 108.455 296.645 108.62 296.158 108.952C295.675 109.278 295.303 109.705 295.043 110.23C294.782 110.756 294.652 111.319 294.652 111.92V112.886C294.652 113.71 294.794 114.409 295.078 114.982C295.367 115.55 295.767 115.983 296.278 116.281C296.79 116.575 297.384 116.722 298.061 116.722C298.501 116.722 298.899 116.66 299.254 116.537C299.614 116.409 299.924 116.22 300.185 115.969C300.445 115.713 300.646 115.396 300.788 115.017L302.408 115.472C302.237 116.021 301.951 116.504 301.548 116.92C301.146 117.332 300.649 117.654 300.057 117.886C299.465 118.114 298.8 118.227 298.061 118.227ZM312.855 109.534L311.349 109.96C311.255 109.709 311.115 109.465 310.93 109.229C310.75 108.987 310.504 108.788 310.192 108.632C309.879 108.476 309.479 108.398 308.991 108.398C308.324 108.398 307.768 108.552 307.322 108.859C306.882 109.162 306.662 109.548 306.662 110.017C306.662 110.434 306.813 110.763 307.116 111.004C307.42 111.246 307.893 111.447 308.537 111.608L310.156 112.006C311.132 112.242 311.858 112.605 312.337 113.092C312.815 113.575 313.054 114.198 313.054 114.96C313.054 115.585 312.874 116.144 312.514 116.636C312.159 117.129 311.662 117.517 311.023 117.801C310.384 118.085 309.64 118.227 308.793 118.227C307.68 118.227 306.759 117.986 306.03 117.503C305.301 117.02 304.839 116.314 304.645 115.386L306.236 114.989C306.387 115.576 306.674 116.016 307.095 116.31C307.521 116.603 308.078 116.75 308.764 116.75C309.545 116.75 310.166 116.584 310.625 116.253C311.089 115.917 311.321 115.514 311.321 115.045C311.321 114.667 311.188 114.349 310.923 114.094C310.658 113.833 310.251 113.639 309.702 113.511L307.884 113.085C306.884 112.848 306.151 112.482 305.682 111.984C305.218 111.482 304.986 110.855 304.986 110.102C304.986 109.487 305.159 108.942 305.504 108.469C305.855 107.995 306.33 107.624 306.932 107.354C307.538 107.084 308.224 106.949 308.991 106.949C310.071 106.949 310.919 107.186 311.534 107.659C312.154 108.133 312.595 108.758 312.855 109.534ZM323.304 109.534L321.799 109.96C321.704 109.709 321.564 109.465 321.38 109.229C321.2 108.987 320.953 108.788 320.641 108.632C320.328 108.476 319.928 108.398 319.441 108.398C318.773 108.398 318.217 108.552 317.772 108.859C317.331 109.162 317.111 109.548 317.111 110.017C317.111 110.434 317.263 110.763 317.566 111.004C317.869 111.246 318.342 111.447 318.986 111.608L320.605 112.006C321.581 112.242 322.308 112.605 322.786 113.092C323.264 113.575 323.503 114.198 323.503 114.96C323.503 115.585 323.323 116.144 322.963 116.636C322.608 117.129 322.111 117.517 321.472 117.801C320.833 118.085 320.089 118.227 319.242 118.227C318.129 118.227 317.208 117.986 316.479 117.503C315.75 117.02 315.288 116.314 315.094 115.386L316.685 114.989C316.837 115.576 317.123 116.016 317.544 116.31C317.971 116.603 318.527 116.75 319.213 116.75C319.995 116.75 320.615 116.584 321.074 116.253C321.538 115.917 321.77 115.514 321.77 115.045C321.77 114.667 321.638 114.349 321.373 114.094C321.107 113.833 320.7 113.639 320.151 113.511L318.333 113.085C317.334 112.848 316.6 112.482 316.131 111.984C315.667 111.482 315.435 110.855 315.435 110.102C315.435 109.487 315.608 108.942 315.953 108.469C316.304 107.995 316.78 107.624 317.381 107.354C317.987 107.084 318.674 106.949 319.441 106.949C320.52 106.949 321.368 107.186 321.983 107.659C322.604 108.133 323.044 108.758 323.304 109.534ZM329.237 118.256C328.545 118.256 327.918 118.125 327.354 117.865C326.791 117.6 326.344 117.219 326.012 116.722C325.681 116.22 325.515 115.614 325.515 114.903C325.515 114.278 325.638 113.772 325.884 113.384C326.13 112.991 326.46 112.683 326.871 112.46C327.283 112.238 327.738 112.072 328.235 111.963C328.737 111.849 329.241 111.759 329.748 111.693C330.411 111.608 330.948 111.544 331.36 111.501C331.777 111.454 332.08 111.376 332.269 111.267C332.463 111.158 332.56 110.969 332.56 110.699V110.642C332.56 109.941 332.369 109.397 331.985 109.009C331.606 108.62 331.031 108.426 330.259 108.426C329.459 108.426 328.832 108.601 328.377 108.952C327.923 109.302 327.603 109.676 327.418 110.074L325.827 109.506C326.112 108.843 326.49 108.327 326.964 107.957C327.442 107.583 327.963 107.323 328.526 107.176C329.094 107.025 329.653 106.949 330.202 106.949C330.553 106.949 330.955 106.991 331.41 107.077C331.869 107.157 332.312 107.325 332.738 107.581C333.169 107.837 333.526 108.223 333.81 108.739C334.094 109.255 334.237 109.946 334.237 110.812V118H332.56V116.523H332.475C332.362 116.759 332.172 117.013 331.907 117.283C331.642 117.553 331.289 117.782 330.849 117.972C330.408 118.161 329.871 118.256 329.237 118.256ZM329.492 116.75C330.155 116.75 330.714 116.62 331.168 116.359C331.628 116.099 331.973 115.763 332.205 115.351C332.442 114.939 332.56 114.506 332.56 114.051V112.517C332.489 112.602 332.333 112.68 332.092 112.751C331.855 112.818 331.58 112.877 331.268 112.929C330.96 112.976 330.659 113.019 330.366 113.057C330.077 113.09 329.843 113.118 329.663 113.142C329.227 113.199 328.82 113.291 328.441 113.419C328.067 113.542 327.764 113.729 327.532 113.98C327.305 114.226 327.191 114.562 327.191 114.989C327.191 115.571 327.406 116.011 327.837 116.31C328.273 116.603 328.825 116.75 329.492 116.75ZM341.699 122.318C340.89 122.318 340.194 122.214 339.611 122.006C339.029 121.802 338.543 121.532 338.155 121.196C337.772 120.865 337.466 120.509 337.239 120.131L338.574 119.193C338.726 119.392 338.917 119.619 339.15 119.875C339.382 120.135 339.699 120.36 340.101 120.55C340.508 120.744 341.041 120.841 341.699 120.841C342.58 120.841 343.307 120.628 343.88 120.202C344.453 119.776 344.739 119.108 344.739 118.199V115.983H344.597C344.474 116.182 344.299 116.428 344.071 116.722C343.849 117.01 343.527 117.268 343.105 117.496C342.689 117.718 342.125 117.83 341.415 117.83C340.534 117.83 339.744 117.621 339.043 117.205C338.347 116.788 337.795 116.182 337.388 115.386C336.986 114.591 336.784 113.625 336.784 112.489C336.784 111.371 336.981 110.398 337.374 109.57C337.767 108.736 338.314 108.092 339.015 107.638C339.715 107.179 340.525 106.949 341.444 106.949C342.154 106.949 342.717 107.067 343.134 107.304C343.555 107.536 343.877 107.801 344.1 108.099C344.327 108.393 344.502 108.634 344.625 108.824H344.796V107.091H346.415V118.312C346.415 119.25 346.202 120.012 345.776 120.599C345.355 121.191 344.786 121.625 344.071 121.899C343.361 122.179 342.57 122.318 341.699 122.318ZM341.642 116.324C342.315 116.324 342.883 116.17 343.347 115.862C343.811 115.554 344.164 115.112 344.405 114.534C344.647 113.956 344.767 113.265 344.767 112.46C344.767 111.674 344.649 110.981 344.412 110.379C344.176 109.778 343.825 109.307 343.361 108.966C342.897 108.625 342.324 108.455 341.642 108.455C340.932 108.455 340.34 108.634 339.867 108.994C339.398 109.354 339.045 109.837 338.809 110.443C338.577 111.049 338.461 111.722 338.461 112.46C338.461 113.218 338.579 113.888 338.816 114.47C339.057 115.048 339.412 115.502 339.881 115.834C340.355 116.161 340.942 116.324 341.642 116.324ZM354.057 118.227C353.006 118.227 352.099 117.995 351.337 117.531C350.579 117.062 349.995 116.409 349.583 115.571C349.176 114.728 348.972 113.748 348.972 112.631C348.972 111.513 349.176 110.528 349.583 109.676C349.995 108.819 350.568 108.152 351.301 107.673C352.04 107.19 352.902 106.949 353.887 106.949C354.455 106.949 355.016 107.044 355.57 107.233C356.124 107.422 356.628 107.73 357.083 108.156C357.537 108.578 357.9 109.136 358.169 109.832C358.439 110.528 358.574 111.385 358.574 112.403V113.114H350.165V111.665H356.87C356.87 111.049 356.747 110.5 356.5 110.017C356.259 109.534 355.913 109.153 355.463 108.874C355.018 108.594 354.493 108.455 353.887 108.455C353.219 108.455 352.641 108.62 352.154 108.952C351.671 109.278 351.299 109.705 351.039 110.23C350.778 110.756 350.648 111.319 350.648 111.92V112.886C350.648 113.71 350.79 114.409 351.074 114.982C351.363 115.55 351.763 115.983 352.275 116.281C352.786 116.575 353.38 116.722 354.057 116.722C354.498 116.722 354.895 116.66 355.25 116.537C355.61 116.409 355.92 116.22 356.181 115.969C356.441 115.713 356.642 115.396 356.784 115.017L358.404 115.472C358.233 116.021 357.947 116.504 357.544 116.92C357.142 117.332 356.645 117.654 356.053 117.886C355.461 118.114 354.796 118.227 354.057 118.227ZM368.425 111.438V118H366.749V103.455H368.425V108.795H368.567C368.823 108.232 369.206 107.785 369.718 107.453C370.234 107.117 370.92 106.949 371.777 106.949C372.521 106.949 373.172 107.098 373.73 107.396C374.289 107.69 374.722 108.142 375.03 108.753C375.343 109.359 375.499 110.131 375.499 111.068V118H373.823V111.182C373.823 110.315 373.598 109.645 373.148 109.172C372.703 108.694 372.085 108.455 371.294 108.455C370.745 108.455 370.253 108.571 369.817 108.803C369.386 109.035 369.045 109.373 368.794 109.818C368.548 110.263 368.425 110.803 368.425 111.438ZM383.139 118.227C382.088 118.227 381.181 117.995 380.419 117.531C379.661 117.062 379.077 116.409 378.665 115.571C378.258 114.728 378.054 113.748 378.054 112.631C378.054 111.513 378.258 110.528 378.665 109.676C379.077 108.819 379.65 108.152 380.384 107.673C381.122 107.19 381.984 106.949 382.969 106.949C383.537 106.949 384.098 107.044 384.652 107.233C385.206 107.422 385.71 107.73 386.165 108.156C386.619 108.578 386.982 109.136 387.251 109.832C387.521 110.528 387.656 111.385 387.656 112.403V113.114H379.247V111.665H385.952C385.952 111.049 385.829 110.5 385.582 110.017C385.341 109.534 384.995 109.153 384.545 108.874C384.1 108.594 383.575 108.455 382.969 108.455C382.301 108.455 381.723 108.62 381.236 108.952C380.753 109.278 380.381 109.705 380.121 110.23C379.86 110.756 379.73 111.319 379.73 111.92V112.886C379.73 113.71 379.872 114.409 380.156 114.982C380.445 115.55 380.845 115.983 381.357 116.281C381.868 116.575 382.462 116.722 383.139 116.722C383.58 116.722 383.977 116.66 384.332 116.537C384.692 116.409 385.002 116.22 385.263 115.969C385.523 115.713 385.724 115.396 385.866 115.017L387.486 115.472C387.315 116.021 387.029 116.504 386.626 116.92C386.224 117.332 385.727 117.654 385.135 117.886C384.543 118.114 383.878 118.227 383.139 118.227ZM390.206 118V107.091H391.825V108.739H391.939C392.138 108.199 392.498 107.761 393.018 107.425C393.539 107.089 394.126 106.92 394.78 106.92C394.903 106.92 395.057 106.923 395.241 106.928C395.426 106.932 395.566 106.939 395.661 106.949V108.653C395.604 108.639 395.473 108.618 395.27 108.589C395.071 108.556 394.86 108.54 394.638 108.54C394.107 108.54 393.634 108.651 393.217 108.874C392.805 109.091 392.479 109.394 392.237 109.783C392 110.166 391.882 110.604 391.882 111.097V118H390.206ZM401.889 118.227C400.838 118.227 399.931 117.995 399.169 117.531C398.411 117.062 397.827 116.409 397.415 115.571C397.008 114.728 396.804 113.748 396.804 112.631C396.804 111.513 397.008 110.528 397.415 109.676C397.827 108.819 398.4 108.152 399.134 107.673C399.872 107.19 400.734 106.949 401.719 106.949C402.287 106.949 402.848 107.044 403.402 107.233C403.956 107.422 404.46 107.73 404.915 108.156C405.369 108.578 405.732 109.136 406.001 109.832C406.271 110.528 406.406 111.385 406.406 112.403V113.114H397.997V111.665H404.702C404.702 111.049 404.579 110.5 404.332 110.017C404.091 109.534 403.745 109.153 403.295 108.874C402.85 108.594 402.325 108.455 401.719 108.455C401.051 108.455 400.473 108.62 399.986 108.952C399.503 109.278 399.131 109.705 398.871 110.23C398.61 110.756 398.48 111.319 398.48 111.92V112.886C398.48 113.71 398.622 114.409 398.906 114.982C399.195 115.55 399.595 115.983 400.107 116.281C400.618 116.575 401.212 116.722 401.889 116.722C402.33 116.722 402.727 116.66 403.082 116.537C403.442 116.409 403.752 116.22 404.013 115.969C404.273 115.713 404.474 115.396 404.616 115.017L406.236 115.472C406.065 116.021 405.779 116.504 405.376 116.92C404.974 117.332 404.477 117.654 403.885 117.886C403.293 118.114 402.628 118.227 401.889 118.227Z" fill="black" fill-opacity="0.4"/>
<path d="M114.106 125C111.292 125 108.654 124.22 106.678 122.804C104.701 121.388 103.611 119.499 103.611 117.484C103.611 115.469 104.7 113.58 106.678 112.164L128.405 96.6043C131.513 94.3792 136.344 94.479 139.64 96.8397C142.937 99.2005 143.078 102.659 139.97 104.886L119.558 119.504C117.642 120.876 114.522 120.878 112.603 119.504C110.685 118.13 110.686 115.895 112.603 114.522L126.429 104.62C126.896 104.286 127.651 104.286 128.118 104.62C128.584 104.954 128.584 105.495 128.118 105.829L114.291 115.731C113.305 116.438 113.305 117.588 114.291 118.295C115.279 119.001 116.884 119 117.87 118.295L138.281 103.677C140.427 102.14 140.286 99.7204 137.952 98.0489C135.618 96.3774 132.239 96.2765 130.093 97.8134L108.366 113.374C106.84 114.466 105.999 115.926 105.999 117.484C105.999 119.042 106.84 120.502 108.366 121.595C109.892 122.688 111.931 123.29 114.106 123.29C116.281 123.29 118.32 122.688 119.846 121.595L141.573 106.035C142.04 105.701 142.795 105.701 143.261 106.035C143.728 106.369 143.728 106.91 143.261 107.244L121.534 122.804C119.558 124.22 116.92 125 114.106 125Z" fill="black" fill-opacity="0.4"/>
<path d="M780.618 109.959L754.573 99.2671C753.893 98.9428 753.06 98.912 752.346 99.1847C751.633 99.4575 751.129 99.9988 751 100.633C751.009 100.843 751.071 101.05 751.183 101.24L756.142 111.001C756.391 111.649 756.526 112.322 756.544 113.001C756.526 113.68 756.391 114.354 756.142 115.002L751.183 124.763C751.071 124.953 751.009 125.16 751 125.37C751.13 126.003 751.633 126.543 752.346 126.816C753.059 127.088 753.891 127.057 754.571 126.734L780.618 116.041C782.071 115.492 783 114.305 783 113C783 111.696 782.071 110.509 780.618 109.959Z" fill="white"/>
<path d="M697.09 118.714C696.737 119.591 696.159 120.369 695.409 120.978C693.024 122.889 689.552 122.913 687.138 121.035C686.377 120.438 685.786 119.668 685.418 118.796" stroke="black" stroke-opacity="0.4" stroke-width="2" stroke-linecap="round" stroke-linejoin="round"/>
<path fill-rule="evenodd" clip-rule="evenodd" d="M677.635 115C677.635 122.179 683.731 128 691.252 128C698.772 128 704.869 122.179 704.869 115C704.869 107.82 698.772 102 691.252 102C687.64 102 684.177 103.37 681.623 105.808C679.069 108.245 677.635 111.552 677.635 115Z" stroke="black" stroke-opacity="0.4" stroke-width="2" stroke-linecap="round" stroke-linejoin="round"/>
<path d="M697.09 113.143V111.285" stroke="black" stroke-opacity="0.4" stroke-width="2" stroke-linecap="round"/>
<path d="M685.417 113.143V111.285" stroke="black" stroke-opacity="0.4" stroke-width="2" stroke-linecap="round"/>
<defs>
<filter id="filter0_d_12_46" x="0.800003" y="0.800003" width="904.4" height="242.4" filterUnits="userSpaceOnUse" color-interpolation-filters="sRGB">
<feFlood flood-opacity="0" result="BackgroundImageFix"/>
<feColorMatrix in="SourceAlpha" type="matrix" values="0 0 0 0 0 0 0 0 0 0 0 0 0 0 0 0 0 0 127 0" result="hardAlpha"/>
<feOffset dx="10" dy="10"/>
<feGaussianBlur stdDeviation="38.6"/>
<feComposite in2="hardAlpha" operator="out"/>
<feColorMatrix type="matrix" values="0 0 0 0 0 0 0 0 0 0 0 0 0 0 0 0 0 0 0.04 0"/>
<feBlend mode="normal" in2="BackgroundImageFix" result="effect1_dropShadow_12_46"/>
<feBlend mode="normal" in="SourceGraphic" in2="effect1_dropShadow_12_46" result="shape"/>
</filter>
</defs>
</svg>
